<svg width="162" height="38" viewBox="0 0 162 38" fill="none" xmlns="http://www.w3.org/2000/svg">
<path fill-rule="evenodd" clip-rule="evenodd" d="M18.1228 0.917236C22.9709 0.917236 27.3746 2.82205 30.6265 5.92259C30.7121 6.0043 30.7415 6.12099 30.704 6.23321C30.6671 6.34598 30.5745 6.42209 30.4566 6.43665C30.2084 6.46743 29.9552 6.4414 29.726 6.33367C27.594 5.42309 25.2845 4.55254 22.8013 3.71864C22.7683 3.70772 22.7358 3.71024 22.705 3.72647C22.6205 3.77096 22.538 3.81546 22.4562 3.85995C22.4221 3.8787 22.4003 3.90864 22.3938 3.94726C22.3874 3.9856 22.3975 4.02141 22.4235 4.05024C23.8271 5.61842 25.1549 7.37884 26.4245 9.29401C26.6003 9.57132 26.6504 9.89285 26.5927 10.2107C26.5429 10.5359 26.3787 10.8499 26.1184 11.1014C24.3127 12.8386 22.503 14.5792 20.6972 16.3164C20.4373 16.5677 20.1043 16.7121 19.745 16.7527C19.389 16.7896 19.0219 16.7157 18.6967 16.5235C16.2899 15.1235 13.876 13.7159 11.4843 12.2801C11.4362 12.2513 11.3769 12.2577 11.336 12.296C11.2686 12.3596 11.2039 12.4242 11.1396 12.488C11.0976 12.5291 11.0903 12.5924 11.1219 12.6422C12.5994 14.9575 14.0582 17.2832 15.51 19.6022C15.7087 19.9164 15.7814 20.2749 15.7431 20.6185C15.7047 20.9624 15.5517 21.2876 15.2917 21.5392C13.4938 23.2834 11.6956 25.0279 9.89738 26.7723C9.63322 27.0275 9.31225 27.1828 8.97561 27.2307C8.64653 27.2861 8.31353 27.2382 8.0267 27.0681C6.03822 25.8438 4.21399 24.56 2.58985 23.2019C2.56074 23.1776 2.52576 23.1684 2.48883 23.1751C2.45133 23.1818 2.42223 23.2025 2.40348 23.2355C2.3587 23.3144 2.31337 23.3925 2.26748 23.4703C2.24845 23.503 2.24509 23.5386 2.25797 23.5744C3.11677 25.9745 4.01699 28.2107 4.95863 30.2616C5.05517 30.4538 5.08819 30.6628 5.07476 30.8707C5.06664 30.9942 4.98969 31.0949 4.87272 31.1349C4.75603 31.1746 4.63346 31.1422 4.55147 31.0498C1.71985 27.8525 0 23.6474 0 19.0403C0 17.0286 0.327963 15.0933 0.93296 13.2855C0.968779 13.1795 1.05273 13.1064 1.1627 13.086C1.27268 13.0656 1.37733 13.1039 1.44869 13.1901C2.70038 14.7099 4.87691 16.6043 6.3312 17.7696C6.38381 17.8118 6.46132 17.8037 6.50386 17.7514C6.5587 17.6839 6.61523 17.6171 6.67372 17.5507C6.70814 17.5121 6.71457 17.459 6.69107 17.4128C5.42287 14.9419 4.16138 12.4169 2.89262 9.85591C2.85233 9.77504 2.81595 9.69333 2.78489 9.61134C2.74935 9.51984 2.75886 9.42581 2.81119 9.34326C4.10206 7.30916 5.78721 5.54958 7.75862 4.1728C7.8297 4.12327 7.90917 4.10732 7.99396 4.12579C8.1974 4.17028 8.40588 4.2394 8.6082 4.33399C11.2579 5.56441 13.8699 6.78783 16.4371 8.00734C16.4816 8.02833 16.5305 8.02217 16.5683 7.99111C16.6346 7.93682 16.7021 7.88338 16.7709 7.83105C16.7989 7.80978 16.8151 7.78096 16.8187 7.74598C16.8224 7.711 16.8126 7.67938 16.7896 7.6528C15.196 5.79611 13.4871 4.10424 11.6228 2.62645C11.526 2.55733 11.4768 2.46163 11.491 2.34158C11.5045 2.22797 11.575 2.1373 11.6819 2.09673C13.6832 1.33559 15.8542 0.917236 18.1228 0.917236ZM31.457 6.76685C33.8138 9.32591 35.4427 12.5655 36.0166 16.1572C36.0387 16.2968 35.9637 16.43 35.8322 16.4826C35.7004 16.5355 35.5541 16.491 35.4738 16.3743C35.0453 15.7509 34.5646 15.1529 34.0388 14.5789C34.0114 14.549 33.9744 14.535 33.9341 14.5397C33.8938 14.5442 33.8608 14.5658 33.8407 14.601C33.7984 14.6749 33.755 14.7485 33.7108 14.8229C33.6915 14.8548 33.6879 14.8898 33.6996 14.9251C34.4739 17.2359 35.2046 19.6721 35.8804 22.248C35.9137 22.3748 35.917 22.4898 35.8915 22.6182C35.3352 25.395 34.1448 27.9426 32.4776 30.1029C32.3836 30.2249 32.2143 30.256 32.0833 30.1751C32.0187 30.1353 31.9549 30.0903 31.8913 30.0396C29.7212 28.4474 27.4543 26.9307 25.1309 25.4686C25.0816 25.4378 25.0198 25.4445 24.9787 25.4851C24.9149 25.5481 24.8502 25.6085 24.7861 25.6689C24.7419 25.7106 24.7346 25.7772 24.7688 25.8273C26.281 28.0705 27.8494 30.2588 29.4963 32.3533C29.5819 32.4532 29.653 32.5553 29.7095 32.6566C29.7803 32.7842 29.7512 32.9407 29.6384 33.0336C27.747 34.5917 25.5341 35.7742 23.1144 36.466C23.0033 36.4979 22.9029 36.5057 22.7881 36.4915C22.6096 36.4696 22.4336 36.4405 22.266 36.4041C19.2849 35.699 16.4855 34.9244 13.8444 34.0983C13.8122 34.0883 13.7803 34.0911 13.7504 34.1067C13.6718 34.1481 13.5951 34.1896 13.5195 34.2307C13.4826 34.2506 13.4602 34.2844 13.4557 34.3261C13.4515 34.3678 13.4664 34.4053 13.498 34.4324C14.4522 35.2518 15.4705 35.9556 16.5613 36.5166C16.6903 36.583 16.7524 36.7282 16.7116 36.8675C16.6707 37.0063 16.5403 37.0951 16.3959 37.0813C12.1248 36.6778 8.28555 34.7912 5.39768 31.9428C5.3378 31.8837 5.30786 31.811 5.3087 31.727C5.30925 31.6431 5.3406 31.5709 5.40104 31.5127C6.97454 30.0105 8.55027 28.5008 10.1232 26.9942C10.3832 26.7429 10.7123 26.5876 11.0604 26.5359C11.4124 26.4877 11.7683 26.5434 12.0781 26.7133C14.4405 27.9661 16.8971 29.194 19.4251 30.4104C19.4676 30.4308 19.5147 30.4264 19.5524 30.3981C19.626 30.3433 19.6985 30.287 19.7718 30.2294C19.8247 30.188 19.8345 30.1113 19.7939 30.0578C18.2481 28.0246 16.7608 25.8984 15.3149 23.6827C15.1193 23.3796 15.0469 23.0357 15.0852 22.6924C15.1272 22.3518 15.2763 22.0303 15.5402 21.7756C17.3423 20.0421 19.1442 18.3012 20.9457 16.5531C21.2062 16.3016 21.5429 16.1538 21.891 16.1169C22.2467 16.0802 22.6026 16.1505 22.9202 16.3351C25.2087 17.741 27.4154 19.176 29.5262 20.6678C29.5788 20.705 29.6507 20.6955 29.6919 20.6465C29.7498 20.5774 29.8072 20.508 29.8637 20.4378C29.8947 20.3989 29.8998 20.3485 29.8771 20.304C28.6187 17.8636 27.3491 15.4923 26.0571 13.208C25.8772 12.9125 25.8198 12.5689 25.8699 12.2286C25.9234 11.8925 26.084 11.5744 26.3479 11.3194C27.9077 9.79995 29.4674 8.2799 31.0272 6.75537C31.0874 6.69661 31.1604 6.66807 31.2444 6.6703C31.3283 6.67254 31.4 6.70472 31.457 6.76685Z" fill="url(#paint0_linear_1979_15465)"/>
<path fill-rule="evenodd" clip-rule="evenodd" d="M18.1228 0.917236C22.9709 0.917236 27.3746 2.82205 30.6265 5.92259C30.7121 6.0043 30.7415 6.12099 30.704 6.23321C30.6671 6.34598 30.5745 6.42209 30.4566 6.43665C30.2084 6.46743 29.9552 6.4414 29.726 6.33367C27.594 5.42309 25.2845 4.55254 22.8013 3.71864C22.7683 3.70772 22.7358 3.71024 22.705 3.72647C22.6205 3.77096 22.538 3.81546 22.4562 3.85995C22.4221 3.8787 22.4003 3.90864 22.3938 3.94726C22.3874 3.9856 22.3975 4.02141 22.4235 4.05024C23.8271 5.61842 25.1549 7.37884 26.4245 9.29401C26.6003 9.57132 26.6504 9.89285 26.5927 10.2107C26.5429 10.5359 26.3787 10.8499 26.1184 11.1014C24.3127 12.8386 22.503 14.5792 20.6972 16.3164C20.4373 16.5677 20.1043 16.7121 19.745 16.7527C19.389 16.7896 19.0219 16.7157 18.6967 16.5235C16.2899 15.1235 13.876 13.7159 11.4843 12.2801C11.4362 12.2513 11.3769 12.2577 11.336 12.296C11.2686 12.3596 11.2039 12.4242 11.1396 12.488C11.0976 12.5291 11.0903 12.5924 11.1219 12.6422C12.5994 14.9575 14.0582 17.2832 15.51 19.6022C15.7087 19.9164 15.7814 20.2749 15.7431 20.6185C15.7047 20.9624 15.5517 21.2876 15.2917 21.5392C13.4938 23.2834 11.6956 25.0279 9.89738 26.7723C9.63322 27.0275 9.31225 27.1828 8.97561 27.2307C8.64653 27.2861 8.31353 27.2382 8.0267 27.0681C6.03822 25.8438 4.21399 24.56 2.58985 23.2019C2.56074 23.1776 2.52576 23.1684 2.48883 23.1751C2.45133 23.1818 2.42223 23.2025 2.40348 23.2355C2.3587 23.3144 2.31337 23.3925 2.26748 23.4703C2.24845 23.503 2.24509 23.5386 2.25797 23.5744C3.11677 25.9745 4.01699 28.2107 4.95863 30.2616C5.05517 30.4538 5.08819 30.6628 5.07476 30.8707C5.06664 30.9942 4.98969 31.0949 4.87272 31.1349C4.75603 31.1746 4.63346 31.1422 4.55147 31.0498C1.71985 27.8525 0 23.6474 0 19.0403C0 17.0286 0.327963 15.0933 0.93296 13.2855C0.968779 13.1795 1.05273 13.1064 1.1627 13.086C1.27268 13.0656 1.37733 13.1039 1.44869 13.1901C2.70038 14.7099 4.87691 16.6043 6.3312 17.7696C6.38381 17.8118 6.46132 17.8037 6.50386 17.7514C6.5587 17.6839 6.61523 17.6171 6.67372 17.5507C6.70814 17.5121 6.71457 17.459 6.69107 17.4128C5.42287 14.9419 4.16138 12.4169 2.89262 9.85591C2.85233 9.77504 2.81595 9.69333 2.78489 9.61134C2.74935 9.51984 2.75886 9.42581 2.81119 9.34326C4.10206 7.30916 5.78721 5.54958 7.75862 4.1728C7.8297 4.12327 7.90917 4.10732 7.99396 4.12579C8.1974 4.17028 8.40588 4.2394 8.6082 4.33399C11.2579 5.56441 13.8699 6.78783 16.4371 8.00734C16.4816 8.02833 16.5305 8.02217 16.5683 7.99111C16.6346 7.93682 16.7021 7.88338 16.7709 7.83105C16.7989 7.80978 16.8151 7.78096 16.8187 7.74598C16.8224 7.711 16.8126 7.67938 16.7896 7.6528C15.196 5.79611 13.4871 4.10424 11.6228 2.62645C11.526 2.55733 11.4768 2.46163 11.491 2.34158C11.5045 2.22797 11.575 2.1373 11.6819 2.09673C13.6832 1.33559 15.8542 0.917236 18.1228 0.917236ZM31.457 6.76685C33.8138 9.32591 35.4427 12.5655 36.0166 16.1572C36.0387 16.2968 35.9637 16.43 35.8322 16.4826C35.7004 16.5355 35.5541 16.491 35.4738 16.3743C35.0453 15.7509 34.5646 15.1529 34.0388 14.5789C34.0114 14.549 33.9744 14.535 33.9341 14.5397C33.8938 14.5442 33.8608 14.5658 33.8407 14.601C33.7984 14.6749 33.755 14.7485 33.7108 14.8229C33.6915 14.8548 33.6879 14.8898 33.6996 14.9251C34.4739 17.2359 35.2046 19.6721 35.8804 22.248C35.9137 22.3748 35.917 22.4898 35.8915 22.6182C35.3352 25.395 34.1448 27.9426 32.4776 30.1029C32.3836 30.2249 32.2143 30.256 32.0833 30.1751C32.0187 30.1353 31.9549 30.0903 31.8913 30.0396C29.7212 28.4474 27.4543 26.9307 25.1309 25.4686C25.0816 25.4378 25.0198 25.4445 24.9787 25.4851C24.9149 25.5481 24.8502 25.6085 24.7861 25.6689C24.7419 25.7106 24.7346 25.7772 24.7688 25.8273C26.281 28.0705 27.8494 30.2588 29.4963 32.3533C29.5819 32.4532 29.653 32.5553 29.7095 32.6566C29.7803 32.7842 29.7512 32.9407 29.6384 33.0336C27.747 34.5917 25.5341 35.7742 23.1144 36.466C23.0033 36.4979 22.9029 36.5057 22.7881 36.4915C22.6096 36.4696 22.4336 36.4405 22.266 36.4041C19.2849 35.699 16.4855 34.9244 13.8444 34.0983C13.8122 34.0883 13.7803 34.0911 13.7504 34.1067C13.6718 34.1481 13.5951 34.1896 13.5195 34.2307C13.4826 34.2506 13.4602 34.2844 13.4557 34.3261C13.4515 34.3678 13.4664 34.4053 13.498 34.4324C14.4522 35.2518 15.4705 35.9556 16.5613 36.5166C16.6903 36.583 16.7524 36.7282 16.7116 36.8675C16.6707 37.0063 16.5403 37.0951 16.3959 37.0813C12.1248 36.6778 8.28555 34.7912 5.39768 31.9428C5.3378 31.8837 5.30786 31.811 5.3087 31.727C5.30925 31.6431 5.3406 31.5709 5.40104 31.5127C6.97454 30.0105 8.55027 28.5008 10.1232 26.9942C10.3832 26.7429 10.7123 26.5876 11.0604 26.5359C11.4124 26.4877 11.7683 26.5434 12.0781 26.7133C14.4405 27.9661 16.8971 29.194 19.4251 30.4104C19.4676 30.4308 19.5147 30.4264 19.5524 30.3981C19.626 30.3433 19.6985 30.287 19.7718 30.2294C19.8247 30.188 19.8345 30.1113 19.7939 30.0578C18.2481 28.0246 16.7608 25.8984 15.3149 23.6827C15.1193 23.3796 15.0469 23.0357 15.0852 22.6924C15.1272 22.3518 15.2763 22.0303 15.5402 21.7756C17.3423 20.0421 19.1442 18.3012 20.9457 16.5531C21.2062 16.3016 21.5429 16.1538 21.891 16.1169C22.2467 16.0802 22.6026 16.1505 22.9202 16.3351C25.2087 17.741 27.4154 19.176 29.5262 20.6678C29.5788 20.705 29.6507 20.6955 29.6919 20.6465C29.7498 20.5774 29.8072 20.508 29.8637 20.4378C29.8947 20.3989 29.8998 20.3485 29.8771 20.304C28.6187 17.8636 27.3491 15.4923 26.0571 13.208C25.8772 12.9125 25.8198 12.5689 25.8699 12.2286C25.9234 11.8925 26.084 11.5744 26.3479 11.3194C27.9077 9.79995 29.4674 8.2799 31.0272 6.75537C31.0874 6.69661 31.1604 6.66807 31.2444 6.6703C31.3283 6.67254 31.4 6.70472 31.457 6.76685Z" fill="url(#paint1_linear_1979_15465)"/>
<path d="M41.2444 15.4333H43.692L46.0701 24.945H46.5947L48.6574 16.6945C48.7495 16.3259 48.961 16.0122 49.2481 15.7884C49.5366 15.5628 49.892 15.4333 50.2706 15.4333H51.906C52.2846 15.4333 52.64 15.5628 52.9287 15.7884C53.2156 16.0122 53.4274 16.3259 53.5192 16.6945L55.5818 24.945H56.1068L58.4845 15.4333H60.9322L58.2752 26.0616C58.1832 26.4301 57.9716 26.7438 57.6845 26.9677C57.396 27.1932 57.0403 27.3228 56.662 27.3228H55.0266C54.648 27.3228 54.2926 27.1929 54.0039 26.9677C53.717 26.7435 53.5055 26.4301 53.4134 26.0616L51.3508 17.811H50.8261L48.7634 26.0616C48.6714 26.4301 48.4598 26.7438 48.1727 26.9677C47.8842 27.1932 47.5285 27.3228 47.1502 27.3228H45.5149C45.1363 27.3228 44.7809 27.1929 44.4921 26.9677C44.2053 26.7435 43.9937 26.4301 43.9016 26.0616L41.2444 15.4333ZM76.5586 10.6772H78.9366V13.0553H76.5586V10.6772ZM97.9602 25.6583C97.9602 26.1142 97.7735 26.5292 97.4724 26.8303C97.1506 27.1456 96.7488 27.3228 96.2957 27.3228H87.7351C87.279 27.3228 86.8643 27.1361 86.5629 26.835L86.5584 26.8303C86.2573 26.5292 86.0704 26.1142 86.0704 25.6583V17.0977C86.0704 16.6385 86.2573 16.2221 86.5584 15.921C86.8595 15.6199 87.2759 15.4333 87.7351 15.4333H95.5824V10.6772H97.9602C97.9602 15.6708 97.9602 20.6647 97.9602 25.6583ZM95.5822 17.811H88.4484V24.945H95.5822V17.811ZM83.6926 27.3228H81.3146V10.6772H83.6926V27.3228ZM78.9366 27.3228H76.5586V15.4333H78.9366V27.3228ZM62.6848 17.811V15.4333H72.5162C72.97 15.4333 73.3845 15.6196 73.6881 15.921C74.0007 16.2272 74.1806 16.6609 74.1806 17.0977V25.6583C74.1806 26.1175 73.9939 26.5339 73.6928 26.835C73.3917 27.1361 72.9754 27.3228 72.5162 27.3228H63.9555C63.4994 27.3228 63.0847 27.1361 62.7836 26.835C62.4688 26.5202 62.2911 26.1044 62.2911 25.6583V22.8874C62.2911 22.5088 62.4207 22.1534 62.6462 21.8647C62.8701 21.5778 63.1837 21.3663 63.5523 21.2742L71.8029 19.2116V17.811H62.6848ZM71.8029 24.945V21.6593L64.6688 23.4426V24.945H71.8029Z" fill="white"/>
<path d="M123.24 15.4333H131.8C132.259 15.4333 132.676 15.6199 132.977 15.921C133.278 16.2221 133.465 16.6385 133.465 17.0977V25.6583C133.465 26.1142 133.288 26.5222 132.977 26.8303C132.666 27.1386 132.253 27.3228 131.8 27.3228H123.24C122.78 27.3228 122.364 27.1361 122.063 26.835C121.762 26.5339 121.575 26.1175 121.575 25.6583V17.0977C121.575 16.6438 121.756 16.2342 122.063 15.9258C122.37 15.6174 122.796 15.4333 123.24 15.4333ZM100.528 15.4333H102.976L105.354 24.945H105.879L107.942 16.6945C108.034 16.3259 108.245 16.0122 108.532 15.7884C108.821 15.5628 109.176 15.4333 109.555 15.4333H111.19C111.569 15.4333 111.924 15.5628 112.213 15.7884C112.5 16.0122 112.711 16.3259 112.803 16.6945L114.866 24.945H115.391L117.769 15.4333H120.216L117.559 26.0616C117.467 26.4301 117.255 26.7438 116.969 26.9677C116.68 27.1932 116.324 27.3228 115.946 27.3228H114.311C113.932 27.3228 113.576 27.1929 113.288 26.9677C113.001 26.7435 112.789 26.4301 112.698 26.0616L110.635 17.811H110.11L108.047 26.0616C107.956 26.4301 107.744 26.7438 107.457 26.9677C107.168 27.1932 106.813 27.3228 106.434 27.3228H104.799C104.42 27.3228 104.065 27.1929 103.776 26.9677C103.489 26.7435 103.278 26.4301 103.185 26.0616L100.528 15.4333ZM162 25.6583C162 26.1142 161.823 26.5222 161.512 26.8303C161.201 27.1386 160.789 27.3228 160.335 27.3228H151.775C151.316 27.3228 150.899 27.1361 150.598 26.835C150.297 26.5339 150.11 26.1175 150.11 25.6583V17.0977C150.11 16.6438 150.291 16.2342 150.598 15.9258C150.906 15.6174 151.331 15.4333 151.775 15.4333H159.622V10.6772H162C162 15.6708 162 20.6647 162 25.6583ZM159.622 17.811H152.488V24.945H159.622V17.811ZM147.732 27.3228H145.355V10.6772H147.732V27.3228ZM138.221 27.3228H135.843V17.0977C135.843 16.6438 136.023 16.2342 136.331 15.9258C136.638 15.6174 137.063 15.4333 137.507 15.4333H142.977V17.811H138.221V27.3228ZM131.087 17.811H123.953V24.945H131.087V17.811Z" fill="white"/>
<defs>
<linearGradient id="paint0_linear_1979_15465" x1="18.0102" y1="0.917236" x2="18.0102" y2="37.0827" gradientUnits="userSpaceOnUse">
<stop stop-color="#933FFF"/>
<stop offset="1" stop-color="#9669FF"/>
</linearGradient>
<linearGradient id="paint1_linear_1979_15465" x1="18.0102" y1="0.917236" x2="18.0102" y2="37.0827" gradientUnits="userSpaceOnUse">
<stop stop-color="#933FFF"/>
<stop offset="1" stop-color="#9669FF"/>
</linearGradient>
</defs>
</svg>
