<svg width="80" height="80" viewBox="0 0 80 80" fill="none" xmlns="http://www.w3.org/2000/svg">
<path d="M66.3154 69.6042H59.7366V63.0254H66.3154V69.6042Z" fill="#933FFF"/>
<path d="M72.894 69.6042H66.3152V63.0254H72.894V69.6042Z" fill="#933FFF"/>
<path d="M79.4731 63.0256H72.8943V56.4468H79.4731V63.0256Z" fill="#933FFF"/>
<path d="M79.4731 56.4467H72.8943V49.8678H79.4731V56.4467Z" fill="#933FFF"/>
<path d="M79.4731 49.8682H72.8943V43.2893H79.4731V49.8682Z" fill="#933FFF"/>
<path d="M79.4731 43.2893H72.8943V36.7105H79.4731V43.2893Z" fill="#933FFF"/>
<path d="M79.4731 36.7107H72.8943V30.1319H79.4731V36.7107Z" fill="#933FFF"/>
<path d="M79.4731 30.1318H72.8943V23.553H79.4731V30.1318Z" fill="#933FFF"/>
<path d="M79.4731 23.5531H72.8943V16.9743H79.4731V23.5531Z" fill="#933FFF"/>
<path d="M72.894 16.9746H66.3152V10.3958H72.894V16.9746Z" fill="#933FFF"/>
<path d="M13.6855 16.9746H7.10672V10.3958H13.6855V16.9746Z" fill="#933FFF"/>
<path d="M20.2646 16.9746H13.6858V10.3958H20.2646V16.9746Z" fill="#933FFF"/>
<path d="M26.8428 16.9746H20.2639V10.3958H26.8428V16.9746Z" fill="#933FFF"/>
<path d="M33.4214 16.9746H26.8426V10.3958H33.4214V16.9746Z" fill="#933FFF"/>
<path d="M33.4214 63.0256H40.0002V69.6045H33.4214V63.0256Z" fill="#933FFF"/>
<path d="M26.8428 63.0256H33.4216V69.6045H26.8428V63.0256Z" fill="#933FFF"/>
<path d="M20.2646 63.0256H26.8435V69.6045H20.2646V63.0256Z" fill="#933FFF"/>
<path d="M13.6855 63.0256H20.2644V69.6045H13.6855V63.0256Z" fill="#933FFF"/>
<path d="M53.1577 63.0256H59.7365V69.6045H53.1577V63.0256Z" fill="#933FFF"/>
<path d="M66.3154 16.9746H59.7366V10.3958H66.3154V16.9746Z" fill="#933FFF"/>
<path d="M53.1577 10.3955H59.7365V16.9743H53.1577V10.3955Z" fill="#933FFF"/>
<path d="M46.5791 63.0256H53.1579V69.6045H46.5791V63.0256Z" fill="#933FFF"/>
<path d="M46.5791 10.3955H53.1579V16.9743H46.5791V10.3955Z" fill="#933FFF"/>
<path d="M40.0005 63.0256H46.5793V69.6045H40.0005V63.0256Z" fill="#933FFF"/>
<path d="M13.6855 69.6042H7.10672V63.0254H13.6855V69.6042Z" fill="#933FFF"/>
<path d="M7.10645 63.0256H0.527615V56.4468H7.10645V63.0256Z" fill="#933FFF"/>
<path d="M7.10645 56.4467H0.527615V49.8678H7.10645V56.4467Z" fill="#933FFF"/>
<path d="M7.10645 49.8682H0.527615V43.2893H7.10645V49.8682Z" fill="#933FFF"/>
<path d="M7.10645 43.2893H0.527615V36.7105H7.10645V43.2893Z" fill="#933FFF"/>
<path d="M7.10645 36.7107H0.527615V30.1319H7.10645V36.7107Z" fill="#933FFF"/>
<path d="M7.10645 30.1318H0.527615V23.553H7.10645V30.1318Z" fill="#933FFF"/>
<path d="M7.10645 23.5531H0.527615V16.9743H7.10645V23.5531Z" fill="#933FFF"/>
<path d="M40.0005 16.9746H33.4217V10.3958H40.0005V16.9746Z" fill="#933FFF"/>
<path d="M46.5791 16.9746H40.0003V10.3958H46.5791V16.9746Z" fill="#933FFF"/>
<path d="M20.2646 30.1318H13.6858V23.553H20.2646V30.1318Z" fill="#933FFF"/>
<path d="M26.8428 36.7107H20.2639V30.1319H26.8428V36.7107Z" fill="#933FFF"/>
<path d="M33.4214 43.2893H26.8426V36.7105H33.4214V43.2893Z" fill="#933FFF"/>
<path d="M66.3154 30.1318H59.7366V23.553H66.3154V30.1318Z" fill="#933FFF"/>
<path d="M53.1577 30.1318H59.7365V36.7107H53.1577V30.1318Z" fill="#933FFF"/>
<path d="M46.5791 36.7107H53.1579V43.2895H46.5791V36.7107Z" fill="#933FFF"/>
<path d="M40.0005 49.8682H33.4217V43.2893H40.0005V49.8682Z" fill="#933FFF"/>
<path d="M46.5791 49.8682H40.0003V43.2893H46.5791V49.8682Z" fill="#933FFF"/>
</svg>
