<svg width="30" height="30" viewBox="0 0 30 30" fill="none" xmlns="http://www.w3.org/2000/svg">
<rect width="30" height="30" rx="8" fill="#9184E2"/>
<g clip-path="url(#clip0_69_3879)">
<path d="M7.53418 18.2782V8.15014C7.53418 7.80303 7.83544 7.53272 8.18052 7.57019C10.2188 7.79154 12.1942 8.40869 13.9959 9.38701L14.6251 9.72864C14.8564 9.85423 15.0004 10.0963 15.0004 10.3595V20.5449C15.0004 21.0298 15.0004 21.2722 14.9316 21.4309C14.7888 21.7601 14.4512 21.961 14.0937 21.9293C13.9214 21.9141 13.7083 21.7984 13.2823 21.5671L12.9947 21.4109C12.7121 21.2575 12.5708 21.1808 12.4279 21.1101C11.6476 20.7243 10.8116 20.4631 9.95034 20.3361C9.79263 20.3128 9.6328 20.2955 9.31313 20.2608L9.31311 20.2608C9.03878 20.231 8.90161 20.2161 8.78541 20.1862C8.13432 20.0186 7.64768 19.4762 7.55137 18.8108C7.53418 18.6921 7.53418 18.5541 7.53418 18.2782Z" stroke="white" stroke-width="1.25" stroke-linecap="round"/>
<path d="M22.4666 18.2782V8.15014C22.4666 7.80303 22.1654 7.53272 21.8203 7.57019C19.782 7.79154 17.8066 8.40869 16.0049 9.38701L15.3757 9.72864C15.1444 9.85423 15.0004 10.0963 15.0004 10.3595V20.5449C15.0004 21.0298 15.0004 21.2722 15.0692 21.4309C15.212 21.7601 15.5496 21.961 15.9071 21.9293C16.0794 21.9141 16.2924 21.7984 16.7185 21.5671L17.0061 21.4109C17.2887 21.2575 17.4299 21.1808 17.5729 21.1101C18.3532 20.7243 19.1892 20.4631 20.0505 20.3361C20.2082 20.3128 20.368 20.2955 20.6877 20.2608L20.6877 20.2608C20.962 20.231 21.0992 20.2161 21.2154 20.1862C21.8665 20.0186 22.3531 19.4762 22.4494 18.8108C22.4666 18.6921 22.4666 18.5541 22.4666 18.2782Z" stroke="white" stroke-width="1.25" stroke-linecap="round"/>
<path d="M11.2671 12.973V15V17.0271" stroke="white" stroke-width="1.25" stroke-linecap="round"/>
<path d="M18.7337 12.973V15V17.0271" stroke="white" stroke-width="1.25" stroke-linecap="round"/>
</g>
<defs>
<clipPath id="clip0_69_3879">
<rect width="20" height="20" fill="white" transform="translate(5 5)"/>
</clipPath>
</defs>
</svg>
