<svg width="31" height="30" viewBox="0 0 31 30" fill="none" xmlns="http://www.w3.org/2000/svg">
<rect x="0.5" width="30" height="30" rx="8" fill="#F2DE2B"/>
<g clip-path="url(#clip0_69_3747)">
<path d="M7.58334 16.5816H9.44182C10.9467 16.5816 12.1667 17.8015 12.1667 19.3064V19.7396C12.1667 21.0052 11.1407 22.0312 9.875 22.0312H9.50971C8.4458 22.0312 7.58334 21.1688 7.58334 20.1049V15.8854C7.58334 11.5132 11.1277 7.96875 15.5 7.96875V7.96875" stroke="#101010" stroke-width="1.25" stroke-linecap="round"/>
<path d="M23.4167 16.5816H21.5582C20.0533 16.5816 18.8333 17.8015 18.8333 19.3064V19.7396C18.8333 21.0052 19.8594 22.0312 21.125 22.0312H21.4903C22.5542 22.0312 23.4167 21.1688 23.4167 20.1049V15.8854C23.4167 11.5132 19.8723 7.96875 15.5 7.96875V7.96875" stroke="#101010" stroke-width="1.25" stroke-linecap="round"/>
</g>
<defs>
<clipPath id="clip0_69_3747">
<rect width="20" height="20" fill="white" transform="translate(5.5 5)"/>
</clipPath>
</defs>
</svg>
