<svg width="40" height="40" viewBox="0 0 40 40" fill="none" xmlns="http://www.w3.org/2000/svg">
<g clip-path="url(#clip0_2077_3116)">
<path fill-rule="evenodd" clip-rule="evenodd" d="M20.125 0C25.5087 0 30.3989 2.10678 34.0101 5.53606C34.1052 5.62643 34.1378 5.75549 34.0962 5.8796C34.0552 6.00433 33.9523 6.08852 33.8215 6.10461C33.5459 6.13866 33.2646 6.10987 33.0101 5.99072C30.6425 4.9836 28.0779 4.02074 25.3204 3.09842C25.2837 3.08635 25.2476 3.08914 25.2135 3.10709C25.1196 3.1563 25.0279 3.20551 24.9372 3.25472C24.8993 3.27546 24.8751 3.30857 24.8679 3.35128C24.8608 3.39369 24.872 3.4333 24.9009 3.46518C26.4596 5.19963 27.9341 7.14671 29.3439 9.26494C29.5391 9.57165 29.5947 9.92727 29.5307 10.2789C29.4754 10.6385 29.293 10.9858 29.004 11.264C26.9987 13.1854 24.9891 15.1105 22.9838 17.0319C22.6952 17.3098 22.3254 17.4695 21.9264 17.5144C21.5311 17.5553 21.1234 17.4735 20.7623 17.2609C18.0896 15.7125 15.4091 14.1557 12.7531 12.5676C12.6996 12.5357 12.6338 12.5429 12.5884 12.5853C12.5135 12.6555 12.4417 12.727 12.3703 12.7976C12.3236 12.8431 12.3156 12.913 12.3507 12.9681C13.9914 15.5289 15.6114 18.1012 17.2235 20.666C17.4441 21.0136 17.5249 21.4101 17.4824 21.7902C17.4398 22.1705 17.2698 22.5302 16.9811 22.8084C14.9846 24.7375 12.9877 26.667 10.9908 28.5964C10.6975 28.8787 10.3411 29.0505 9.96724 29.1034C9.6018 29.1647 9.23201 29.1117 8.91349 28.9236C6.70532 27.5695 4.67955 26.1495 2.87597 24.6475C2.84365 24.6206 2.80481 24.6103 2.76379 24.6178C2.72215 24.6252 2.68983 24.6481 2.66901 24.6846C2.61929 24.7719 2.56895 24.8583 2.51799 24.9443C2.49686 24.9805 2.49313 25.0198 2.50742 25.0594C3.46111 27.714 4.46079 30.1873 5.50645 32.4556C5.61366 32.6682 5.65033 32.8994 5.63541 33.1294C5.6264 33.2659 5.54095 33.3773 5.41105 33.4215C5.28147 33.4655 5.14536 33.4296 5.05432 33.3275C1.90986 29.7911 0 25.1402 0 20.0446C0 17.8196 0.364197 15.679 1.03603 13.6797C1.07581 13.5624 1.16903 13.4816 1.29116 13.459C1.41328 13.4364 1.5295 13.4788 1.60874 13.5741C2.99872 15.255 5.41571 17.3504 7.03067 18.6391C7.08909 18.6859 7.17517 18.6769 7.2224 18.619C7.28331 18.5444 7.34608 18.4704 7.41103 18.3971C7.44925 18.3544 7.4564 18.2956 7.43029 18.2445C6.02198 15.5116 4.62113 12.719 3.2122 9.88641C3.16745 9.79697 3.12706 9.70659 3.09256 9.61591C3.0531 9.5147 3.06366 9.41071 3.12177 9.31941C4.55525 7.06964 6.42658 5.12349 8.6158 3.60074C8.69473 3.54596 8.78298 3.52832 8.87714 3.54875C9.10305 3.59796 9.33456 3.6744 9.55923 3.77902C12.5017 5.1399 15.4022 6.49304 18.253 7.84185C18.3024 7.86506 18.3568 7.85825 18.3988 7.82389C18.4724 7.76385 18.5473 7.70474 18.6237 7.64686C18.6548 7.62334 18.6728 7.59146 18.6769 7.55277C18.6809 7.51408 18.67 7.47911 18.6446 7.44971C16.8749 5.39616 14.9771 3.52492 12.9069 1.89044C12.7994 1.81399 12.7447 1.70814 12.7606 1.57536C12.7755 1.44971 12.8538 1.34943 12.9725 1.30455C15.195 0.462705 17.6057 0 20.125 0ZM34.9324 6.46982C37.5495 9.30022 39.3584 12.8833 39.9957 16.8558C40.0203 17.0102 39.937 17.1575 39.791 17.2157C39.6446 17.2742 39.4821 17.225 39.3929 17.0959C38.9171 16.4064 38.3833 15.745 37.7994 15.1102C37.7689 15.0771 37.7279 15.0616 37.6832 15.0669C37.6384 15.0718 37.6017 15.0956 37.5794 15.1346C37.5324 15.2163 37.4843 15.2977 37.4352 15.3801C37.4137 15.4154 37.4097 15.454 37.4227 15.493C38.2826 18.0489 39.0939 20.7434 39.8444 23.5924C39.8814 23.7326 39.8851 23.8598 39.8568 24.0019C39.2391 27.073 37.9171 29.8908 36.0657 32.2801C35.9613 32.415 35.7733 32.4494 35.6279 32.36C35.5561 32.316 35.4852 32.2662 35.4147 32.2102C33.0048 30.4491 30.4875 28.7716 27.9073 27.1544C27.8526 27.1204 27.784 27.1278 27.7383 27.1727C27.6674 27.2423 27.5957 27.3092 27.5245 27.376C27.4754 27.4222 27.4673 27.4958 27.5052 27.5512C29.1845 30.0322 30.9263 32.4525 32.755 34.7691C32.8501 34.8796 32.929 34.9926 32.9918 35.1046C33.0704 35.2458 33.0381 35.4188 32.9129 35.5215C30.8125 37.2448 28.3551 38.5528 25.6681 39.3179C25.5447 39.3531 25.4332 39.3618 25.3058 39.346C25.1075 39.3219 24.912 39.2897 24.7259 39.2495C21.4155 38.4695 18.3068 37.6128 15.3739 36.6992C15.3382 36.688 15.3028 36.6911 15.2695 36.7085C15.1822 36.7543 15.0971 36.8001 15.0132 36.8456C14.9721 36.8675 14.9473 36.905 14.9423 36.9511C14.9377 36.9972 14.9541 37.0387 14.9892 37.0687C16.0489 37.9749 17.1797 38.7533 18.391 39.3739C18.5342 39.4472 18.6032 39.6079 18.5579 39.762C18.5125 39.9155 18.3677 40.0136 18.2073 39.9985C13.4644 39.5522 9.20093 37.4655 5.99402 34.3151C5.92752 34.2498 5.89427 34.1693 5.8952 34.0765C5.89582 33.9836 5.93062 33.9038 5.99775 33.8394C7.74508 32.178 9.4949 30.5082 11.2416 28.8419C11.5303 28.5639 11.8957 28.3921 12.2823 28.3349C12.6732 28.2817 13.0685 28.3432 13.4125 28.5311C16.0358 29.9167 18.7639 31.2748 21.5712 32.6202C21.6184 32.6428 21.6706 32.6379 21.7126 32.6066C21.7943 32.546 21.8748 32.4838 21.9562 32.42C22.0149 32.3742 22.0258 32.2894 21.9808 32.2303C20.2642 29.9814 18.6126 27.6298 17.0069 25.1792C16.7897 24.844 16.7092 24.4636 16.7518 24.0839C16.7984 23.7072 16.964 23.3516 17.2571 23.07C19.2583 21.1526 21.2592 19.2272 23.2598 17.2937C23.5491 17.0155 23.9229 16.8521 24.3095 16.8112C24.7045 16.7707 25.0997 16.8483 25.4524 17.0526C27.9937 18.6076 30.4443 20.1947 32.7883 21.8446C32.8467 21.8858 32.9265 21.8753 32.9722 21.8211C33.0365 21.7447 33.1002 21.6679 33.163 21.5902C33.1975 21.5472 33.2031 21.4915 33.1779 21.4423C31.7805 18.7431 30.3706 16.1204 28.9359 13.5939C28.7361 13.2671 28.6724 12.887 28.728 12.5107C28.7874 12.139 28.9657 11.7871 29.2588 11.5051C30.9909 9.82451 32.723 8.1433 34.4551 6.45714C34.5219 6.39214 34.603 6.36057 34.6962 6.36305C34.7895 6.36552 34.869 6.40111 34.9324 6.46982Z" fill="url(#paint0_linear_2077_3116)"/>
</g>
<defs>
<linearGradient id="paint0_linear_2077_3116" x1="20" y1="0" x2="20" y2="40" gradientUnits="userSpaceOnUse">
<stop stop-color="#933FFF"/>
<stop offset="1" stop-color="#9669FF"/>
</linearGradient>
<clipPath id="clip0_2077_3116">
<rect width="40" height="40" fill="white"/>
</clipPath>
</defs>
</svg>
