<svg width="190" height="24" viewBox="0 0 190 24" fill="none" xmlns="http://www.w3.org/2000/svg">
<g clip-path="url(#clip0_658_12692)">
<path d="M30.6743 4.10815H34.5883L36.6904 18.1612H36.7562L38.4642 4.10815H45.2523L46.9604 18.2047H47.0261L49.079 4.10815H52.8672L50.234 19.1238H43.5937L41.8638 5.15778H41.798L40.0464 19.1238H33.5592L30.6743 4.10815Z" fill="#101010"/>
<path d="M57.4931 4.10815H63.9201L68.94 19.151H64.8944L63.7996 15.7791H57.6628L56.568 19.151H52.5226L57.4931 4.10815ZM63.1591 12.9838L60.6956 5.31548L58.2707 12.9838H63.1591Z" fill="#101010"/>
<path d="M70.2263 4.10815H73.9433V19.151H70.2263V4.10815Z" fill="#101010"/>
<path d="M76.4505 4.10815H80.1729V16.2904H86.6382V19.151H76.4505V4.10815Z" fill="#101010"/>
<path d="M88.3349 4.10815H94.7343C98.9496 4.10815 102.366 6.79476 102.366 11.6513C102.366 16.5079 98.9495 19.151 94.7015 19.151H88.3349V4.10815ZM94.5592 16.2904C96.8749 16.2904 98.5827 14.8111 98.5827 11.5861C98.5827 8.36105 96.8746 6.92527 94.5809 6.94703H91.9643V16.2686L94.5592 16.2904Z" fill="#101010"/>
<path d="M109.16 4.10815H113.074L115.17 18.1612H115.236L116.944 4.10815H123.738L125.446 18.2047H125.511L127.564 4.10815H131.347L128.708 19.151H122.068L120.338 5.18496H120.305L118.553 19.151H112.061L109.16 4.10815Z" fill="#101010"/>
<path d="M132.01 11.6039C132.01 6.57877 135.339 3.65283 139.729 3.65283C144.119 3.65283 147.453 6.57877 147.453 11.6039C147.453 16.6291 144.169 19.555 139.729 19.555C135.289 19.555 132.01 16.6182 132.01 11.6039ZM139.729 16.7161C142.39 16.7161 143.665 14.6114 143.665 11.6039C143.665 8.59644 142.39 6.49174 139.729 6.49174C137.069 6.49174 135.793 8.59644 135.793 11.6039C135.793 14.6114 137.025 16.7161 139.729 16.7161Z" fill="#101010"/>
<path d="M149.467 4.10815H156.803C159.89 4.10815 162.162 6.0225 162.162 9.00279C162.187 9.9907 161.892 10.9605 161.321 11.7693C160.749 12.578 159.931 13.183 158.987 13.495L162.682 19.1456H158.626L155.385 13.9899H153.091V19.1673H149.456L149.467 4.10815ZM156.107 11.1347C157.558 11.1347 158.511 10.4277 158.511 9.07349C158.511 7.71931 157.558 6.94703 156.107 6.94703H153.102V11.1347H156.107Z" fill="#101010"/>
<path d="M164.1 4.10815H167.823V16.2904H174.288V19.151H164.1V4.10815Z" fill="#101010"/>
<path d="M175.964 4.10815H182.369C186.584 4.10815 190 6.79476 190 11.6513C190 16.5079 186.584 19.151 182.336 19.151H175.953L175.964 4.10815ZM182.193 16.2904C184.509 16.2904 186.217 14.8111 186.217 11.5861C186.217 8.36105 184.509 6.92527 182.215 6.94703H179.599V16.2686L182.193 16.2904Z" fill="#101010"/>
<path d="M17.9424 4.89085C19.0785 6.02146 19.9581 7.38048 20.5219 8.87667C21.0856 10.3729 21.3206 11.9716 21.211 13.5654C21.1014 15.1593 20.6495 16.7114 19.8862 18.1175C19.1229 19.5236 18.0656 20.7512 16.7853 21.7178C15.5049 22.6844 14.0311 23.3677 12.463 23.7217C10.8949 24.0757 9.26863 24.0922 7.69353 23.7703C6.11843 23.4483 4.63094 22.7952 3.33091 21.8549C2.03087 20.9145 0.948349 19.7087 0.156171 18.3185L0.0741092 18.1771C-0.473324 16.8446 2.06138 12.8637 6.04669 8.93164C10.032 4.99961 14.0939 2.40546 15.4022 3.01457L15.5062 3.06897C16.3988 3.56195 17.2187 4.17503 17.9424 4.89085Z" fill="#101010"/>
<path d="M0.326438 18.2214L0.326667 18.2213L0.320802 18.2134C0.29654 18.1806 0.275959 18.1453 0.259375 18.108C0.150032 17.8392 0.185107 17.3962 0.404927 16.7828C0.62165 16.1781 1.00414 15.4452 1.5319 14.6247C2.5867 12.9848 4.20773 11.0165 6.19348 9.05728C8.17963 7.09769 10.1817 5.47478 11.8457 4.41922C12.6783 3.89106 13.4205 3.50865 14.0299 3.29584C14.6478 3.08005 15.0868 3.05382 15.3471 3.17298L15.4423 3.22278L15.5165 3.26778C15.6896 3.45598 15.7384 3.82101 15.5789 4.40623C15.4194 4.99175 15.0672 5.73458 14.5445 6.58718C13.5007 8.28992 11.7985 10.3959 9.68405 12.4992C7.56976 14.6024 5.44986 16.2935 3.73516 17.3299C2.87662 17.8488 2.12817 18.1983 1.53801 18.3565C0.933027 18.5187 0.56012 18.4634 0.374433 18.2799L0.250367 18.4055L0.374743 18.2802C0.356319 18.2619 0.340091 18.2422 0.326438 18.2214Z" fill="white" stroke="#101010" stroke-width="0.353012" stroke-miterlimit="10"/>
<path d="M1.86955 16.7956L1.99392 16.6703C1.97555 16.6521 1.95931 16.6323 1.94562 16.6115L1.94585 16.6113L1.93998 16.6034C1.9153 16.5701 1.89442 16.5341 1.87769 16.4961L1.87457 16.489L1.87084 16.4822C0.721901 14.3892 0.286883 11.9827 0.630718 9.62343C0.974553 7.26416 2.07881 5.07894 3.77827 3.39543C5.47775 1.71191 7.68098 0.620797 10.0576 0.285855C12.4341 -0.0490878 14.8558 0.390224 16.9597 1.53785L16.9698 1.54335L16.9805 1.54749C17.0013 1.55554 17.0206 1.56668 17.038 1.58055L17.038 1.58057L17.0404 1.58243L17.1294 1.65114C17.3076 1.83737 17.3598 2.20421 17.1989 2.79642C17.0397 3.38192 16.6881 4.12474 16.1657 4.97731C15.1226 6.68001 13.4204 8.78601 11.3033 10.8892C9.18623 12.9925 7.0663 14.6836 5.35226 15.72C4.49405 16.2389 3.74612 16.5884 3.15639 16.7466C2.55189 16.9088 2.17931 16.8535 1.99361 16.67L1.86955 16.7956ZM1.86955 16.7956C2.90419 17.818 7.17963 15.2347 11.4277 11.0145C15.6758 6.7942 18.276 2.54673 17.2469 1.51886L17.0442 1.3829C14.9069 0.217076 12.447 -0.229153 10.0329 0.111076C7.61883 0.451306 5.38063 1.55966 3.65405 3.27004C1.92747 4.98041 0.805435 7.20067 0.456057 9.59798C0.106679 11.9953 0.548728 14.4405 1.71612 16.5671C1.73811 16.6171 1.7656 16.6646 1.79818 16.7085C1.81882 16.7399 1.84287 16.7691 1.86955 16.7956Z" fill="#101010" stroke="white" stroke-width="0.353012" stroke-miterlimit="10"/>
</g>
<defs>
<clipPath id="clip0_658_12692">
<rect width="190" height="24" fill="white"/>
</clipPath>
</defs>
</svg>
