<svg width="155" height="40" viewBox="0 0 155 40" fill="none" xmlns="http://www.w3.org/2000/svg">
<rect width="155" height="40" rx="10" fill="#933FFF"/>
<path d="M22.2251 28.5833C22.0884 28.9763 21.7178 29.2398 21.3016 29.2398H19.0023C18.6018 29.2398 18.2419 28.9956 18.0938 28.6236L14.5331 19.6772C14.2775 19.0352 14.7505 18.3379 15.4415 18.3379H16.3609C16.7732 18.3379 17.1412 18.5965 17.2809 18.9845L20.0962 26.8041L20.2172 27.2853C20.2198 27.2957 20.2292 27.303 20.2399 27.303C20.2504 27.303 20.2595 27.296 20.2624 27.286L20.401 26.8041L23.1133 18.9949C23.2499 18.6016 23.6206 18.3379 24.037 18.3379L25.9465 18.3379C26.3622 18.3379 26.7324 18.6007 26.8696 18.9931L29.599 26.8041L29.7376 27.286C29.7405 27.296 29.7496 27.303 29.7601 27.303C29.7708 27.303 29.7802 27.2957 29.7828 27.2853L29.9038 26.8041L32.7191 18.9845C32.8588 18.5965 33.2268 18.3379 33.6391 18.3379H34.5585C35.2495 18.3379 35.7225 19.0352 35.4669 19.6772L31.9062 28.6236C31.7581 28.9956 31.3982 29.2398 30.9977 29.2398L28.6984 29.2398C28.2822 29.2398 27.9116 28.9763 27.7749 28.5833L25.1345 20.9937L25.0138 20.5704C25.0109 20.5604 25.0018 20.5535 24.9914 20.5535C24.9807 20.5535 24.9713 20.5608 24.9688 20.5712L24.8655 20.9937L22.2251 28.5833Z" fill="white"/>
<path d="M22.5922 22.9092L24.9999 14.6019L27.4075 22.9092C27.5696 23.4682 28.0816 23.8529 28.6636 23.8529H30.7905C31.3541 23.8529 31.8544 23.4918 32.0318 22.9567L35.6153 12.1491C35.8959 11.3027 35.2657 10.4298 34.3739 10.4298H33.483C32.9054 10.4298 32.3963 10.8086 32.2304 11.3618L29.6365 20.01L27.1219 11.372C26.9594 10.8137 26.4477 10.4298 25.8662 10.4298H24.1173C23.535 10.4298 23.0229 10.8147 22.861 11.3741L20.3628 20.0083L17.7694 11.3618C17.6035 10.8086 17.0943 10.4298 16.5168 10.4298H15.6258C14.7341 10.4298 14.1038 11.3027 14.3845 12.1491L17.968 22.9567C18.1454 23.4918 18.6456 23.8529 19.2093 23.8529H21.3361C21.9182 23.8529 22.4302 23.4682 22.5922 22.9092Z" fill="white" stroke="#933FFF" stroke-width="0.66"/>
<path d="M49.502 25H46.898L44.14 16.74H46.324L48.228 23.152L48.312 23.488H48.34L48.438 23.152L50.44 16.74H52.862L54.864 23.152L54.962 23.488H54.99L55.074 23.152L56.978 16.74H59.162L56.39 25H53.786L51.728 18.546L51.672 18.322H51.63L51.574 18.546L49.502 25ZM63.787 16.516C64.9724 16.516 65.8964 16.6887 66.559 17.034C67.2217 17.37 67.6744 17.8227 67.917 18.392C68.169 18.952 68.295 19.624 68.295 20.408V25H66.251V23.922L66.335 23.054H66.307C65.999 23.7353 65.523 24.2673 64.879 24.65C64.235 25.0327 63.4884 25.224 62.639 25.224C61.351 25.224 60.441 24.9533 59.909 24.412C59.3864 23.8707 59.125 23.222 59.125 22.466C59.125 21.6727 59.419 21.0287 60.007 20.534C60.6044 20.03 61.589 19.778 62.961 19.778C63.5957 19.778 64.2117 19.8293 64.809 19.932C65.4064 20.0347 65.887 20.1513 66.251 20.282V19.96C66.2324 18.5973 65.3924 17.916 63.731 17.916C62.975 17.916 62.415 18.0607 62.051 18.35C61.687 18.63 61.4817 18.9893 61.435 19.428H59.433C59.5357 18.616 59.909 17.93 60.553 17.37C61.197 16.8007 62.275 16.516 63.787 16.516ZM63.185 23.698C64.0344 23.698 64.711 23.488 65.215 23.068C65.719 22.6387 66.041 22.1393 66.181 21.57C65.8357 21.4207 65.4064 21.304 64.893 21.22C64.3797 21.1267 63.8944 21.08 63.437 21.08C62.597 21.08 62.0044 21.206 61.659 21.458C61.323 21.7007 61.155 22.0133 61.155 22.396C61.155 22.7693 61.3137 23.082 61.631 23.334C61.9484 23.5767 62.4664 23.698 63.185 23.698ZM71.0745 15.564C70.2251 15.564 69.8005 15.228 69.8005 14.556C69.8005 14.22 69.9078 13.968 70.1225 13.8C70.3371 13.632 70.6545 13.548 71.0745 13.548C71.9238 13.548 72.3485 13.884 72.3485 14.556C72.3485 15.228 71.9238 15.564 71.0745 15.564ZM72.0825 25H70.0385V16.74H72.0825V25ZM76.0101 25H73.9661V14.29H76.0101V25ZM84.8378 14.29H86.8818V25H84.8378V24.272L84.8798 23.32H84.8378C84.5204 23.936 84.0678 24.4073 83.4798 24.734C82.8918 25.0607 82.2151 25.224 81.4498 25.224C80.5538 25.224 79.7931 25.0467 79.1678 24.692C78.5518 24.328 78.0851 23.824 77.7678 23.18C77.4598 22.536 77.3058 21.794 77.3058 20.954V20.772C77.3058 19.932 77.4644 19.1947 77.7818 18.56C78.0991 17.916 78.5658 17.4167 79.1818 17.062C79.8071 16.698 80.5631 16.516 81.4498 16.516C82.2244 16.516 82.9011 16.6793 83.4798 17.006C84.0678 17.3327 84.5251 17.804 84.8518 18.42H84.8798L84.8378 17.44V14.29ZM82.0378 23.642C82.6351 23.642 83.1438 23.516 83.5638 23.264C83.9931 23.0027 84.3104 22.6713 84.5158 22.27C84.7304 21.8687 84.8378 21.444 84.8378 20.996V20.744C84.8378 20.3053 84.7304 19.8853 84.5158 19.484C84.3104 19.0733 83.9978 18.742 83.5778 18.49C83.1578 18.2287 82.6444 18.098 82.0378 18.098C81.4218 18.098 80.9131 18.2287 80.5118 18.49C80.1104 18.7513 79.8164 19.092 79.6298 19.512C79.4524 19.9227 79.3638 20.3613 79.3638 20.828V20.94C79.3638 21.724 79.5784 22.3727 80.0078 22.886C80.4464 23.39 81.1231 23.642 82.0378 23.642ZM98.0054 25H95.4014L92.6434 16.74H94.8274L96.7314 23.152L96.8154 23.488H96.8434L96.9414 23.152L98.9434 16.74H101.365L103.367 23.152L103.465 23.488H103.493L103.577 23.152L105.481 16.74H107.665L104.893 25H102.289L100.231 18.546L100.175 18.322H100.133L100.077 18.546L98.0054 25ZM112.638 25.224C111.098 25.224 109.89 24.8507 109.012 24.104C108.135 23.348 107.696 22.284 107.696 20.912V20.814C107.696 19.4513 108.135 18.3967 109.012 17.65C109.89 16.894 111.098 16.516 112.638 16.516C114.178 16.516 115.387 16.894 116.264 17.65C117.142 18.3967 117.58 19.4513 117.58 20.814V20.912C117.58 22.284 117.142 23.348 116.264 24.104C115.387 24.8507 114.178 25.224 112.638 25.224ZM112.638 23.628C113.534 23.628 114.239 23.3993 114.752 22.942C115.266 22.4847 115.522 21.7987 115.522 20.884V20.842C115.522 19.9367 115.266 19.2553 114.752 18.798C114.239 18.3407 113.534 18.112 112.638 18.112C111.742 18.112 111.038 18.3407 110.524 18.798C110.011 19.2553 109.754 19.9367 109.754 20.842V20.884C109.754 21.7987 110.011 22.4847 110.524 22.942C111.038 23.3993 111.742 23.628 112.638 23.628ZM124.302 16.516C124.666 16.516 124.974 16.5487 125.226 16.614V18.378C124.927 18.3127 124.573 18.28 124.162 18.28C123.509 18.28 122.935 18.4153 122.44 18.686C121.955 18.9473 121.577 19.316 121.306 19.792C121.045 20.2587 120.914 20.7907 120.914 21.388V25H118.87V16.74H120.914V17.818L120.844 18.742H120.858C121.175 18.0513 121.628 17.51 122.216 17.118C122.813 16.7167 123.509 16.516 124.302 16.516ZM128.178 25H126.134V14.29H128.178V25ZM137.005 14.29H139.049V25H137.005V24.272L137.047 23.32H137.005C136.688 23.936 136.235 24.4073 135.647 24.734C135.059 25.0607 134.383 25.224 133.617 25.224C132.721 25.224 131.961 25.0467 131.335 24.692C130.719 24.328 130.253 23.824 129.935 23.18C129.627 22.536 129.473 21.794 129.473 20.954V20.772C129.473 19.932 129.632 19.1947 129.949 18.56C130.267 17.916 130.733 17.4167 131.349 17.062C131.975 16.698 132.731 16.516 133.617 16.516C134.392 16.516 135.069 16.6793 135.647 17.006C136.235 17.3327 136.693 17.804 137.019 18.42H137.047L137.005 17.44V14.29ZM134.205 23.642C134.803 23.642 135.311 23.516 135.731 23.264C136.161 23.0027 136.478 22.6713 136.683 22.27C136.898 21.8687 137.005 21.444 137.005 20.996V20.744C137.005 20.3053 136.898 19.8853 136.683 19.484C136.478 19.0733 136.165 18.742 135.745 18.49C135.325 18.2287 134.812 18.098 134.205 18.098C133.589 18.098 133.081 18.2287 132.679 18.49C132.278 18.7513 131.984 19.092 131.797 19.512C131.62 19.9227 131.531 20.3613 131.531 20.828V20.94C131.531 21.724 131.746 22.3727 132.175 22.886C132.614 23.39 133.291 23.642 134.205 23.642Z" fill="white"/>
</svg>
