<svg width="8" height="14" viewBox="0 0 8 14" fill="none" xmlns="http://www.w3.org/2000/svg">
<path d="M3.61657 13.2727V0.545454H4.43191V13.2727H3.61657ZM6.16699 4.4929C6.11396 4.02225 5.89521 3.65767 5.51074 3.39915C5.12627 3.13731 4.64237 3.00639 4.05904 3.00639C3.64142 3.00639 3.28016 3.07268 2.97523 3.20526C2.67031 3.33452 2.43333 3.51349 2.26429 3.74219C2.09857 3.96757 2.01571 4.22443 2.01571 4.51278C2.01571 4.75473 2.07206 4.96354 2.18475 5.1392C2.30075 5.31487 2.45156 5.46236 2.63716 5.58168C2.82608 5.69768 3.02826 5.79545 3.2437 5.875C3.45913 5.95123 3.66628 6.0142 3.86515 6.06392L4.85946 6.32244C5.18427 6.40199 5.51737 6.50971 5.85875 6.6456C6.20014 6.78149 6.51666 6.96046 6.80833 7.18253C7.09999 7.40459 7.33532 7.67969 7.51429 8.00781C7.69659 8.33594 7.78773 8.72869 7.78773 9.18608C7.78773 9.76278 7.63858 10.2749 7.34029 10.7223C7.04531 11.1697 6.61609 11.5227 6.05265 11.7812C5.49251 12.0398 4.81472 12.169 4.01926 12.169C3.25695 12.169 2.59739 12.0481 2.04057 11.8061C1.48375 11.5642 1.04791 11.2211 0.733043 10.777C0.418176 10.3295 0.24417 9.79924 0.211026 9.18608H1.75222C1.78205 9.55398 1.90137 9.86056 2.11017 10.1058C2.3223 10.3478 2.59242 10.5284 2.92054 10.6477C3.25198 10.7637 3.61491 10.8217 4.00932 10.8217C4.44351 10.8217 4.82963 10.7538 5.1677 10.6179C5.50909 10.4787 5.77755 10.2865 5.9731 10.0412C6.16865 9.79261 6.26642 9.5026 6.26642 9.17116C6.26642 8.86955 6.18025 8.62263 6.0079 8.4304C5.83887 8.23816 5.60852 8.07907 5.31685 7.95312C5.0285 7.82718 4.70203 7.71615 4.33745 7.62003L3.13432 7.2919C2.31898 7.06984 1.67267 6.74337 1.1954 6.3125C0.721443 5.88163 0.484464 5.31155 0.484464 4.60227C0.484464 4.01562 0.643555 3.50355 0.961737 3.06605C1.27992 2.62855 1.71079 2.28883 2.25435 2.04688C2.79791 1.80161 3.41107 1.67898 4.09384 1.67898C4.78323 1.67898 5.39142 1.79995 5.91841 2.0419C6.44872 2.28385 6.86633 2.61695 7.17125 3.04119C7.47618 3.46212 7.63527 3.94602 7.64853 4.4929H6.16699Z" fill="#101010"/>
</svg>
