<svg width="20" height="20" viewBox="0 0 20 20" fill="none" xmlns="http://www.w3.org/2000/svg">
<rect x="3.75" y="13.75" width="2.5" height="2.5" fill="currentColor"/>
<rect x="6.25" y="11.25" width="2.5" height="2.5" fill="currentColor"/>
<rect x="8.75" y="8.75" width="2.5" height="2.5" fill="currentColor"/>
<rect x="3.75" y="13.75" width="2.5" height="2.5" fill="currentColor"/>
<rect x="6.25" y="11.25" width="2.5" height="2.5" fill="currentColor"/>
<rect x="8.75" y="8.75" width="2.5" height="2.5" fill="currentColor"/>
<rect x="11.25" y="6.25" width="2.5" height="2.5" fill="currentColor"/>
<rect x="13.75" y="3.75" width="2.5" height="2.5" fill="currentColor"/>
<rect width="2.5" height="2.5" transform="matrix(-1 0 0 1 16.25 13.75)" fill="currentColor"/>
<rect width="2.5" height="2.5" transform="matrix(-1 0 0 1 13.75 11.25)" fill="currentColor"/>
<rect width="2.5" height="2.5" transform="matrix(-1 0 0 1 11.25 8.75)" fill="currentColor"/>
<rect width="2.5" height="2.5" transform="matrix(-1 0 0 1 8.75 6.25)" fill="currentColor"/>
<rect width="2.5" height="2.5" transform="matrix(-1 0 0 1 6.25 3.75)" fill="currentColor"/>
</svg>
