<svg width="44" height="44" viewBox="0 0 44 44" fill="none" xmlns="http://www.w3.org/2000/svg">
<path d="M29.9341 23.6219C28.4616 24.0348 26.9058 24.0483 25.4263 23.6611C23.9468 23.2738 22.5971 22.4998 21.5157 21.4184C20.4344 20.337 19.6603 18.9873 19.2731 17.5078C18.8858 16.0284 18.8994 14.4725 19.3123 13C17.8605 13.4041 16.54 14.1815 15.4822 15.2547C14.4243 16.328 13.6662 17.6597 13.2832 19.1171C12.9002 20.5746 12.9058 22.1069 13.2993 23.5616C13.6928 25.0162 14.4606 26.3424 15.5262 27.4079C16.5918 28.4735 17.9179 29.2413 19.3726 29.6348C20.8272 30.0284 22.3596 30.0339 23.817 29.6509C25.2745 29.268 26.6062 28.5098 27.6794 27.452C28.7527 26.3942 29.5301 25.0736 29.9341 23.6219Z" stroke="white" stroke-width="1.5" stroke-linecap="round" stroke-linejoin="round"/>
</svg>
