<svg width="64" height="64" viewBox="0 0 64 64" fill="none" xmlns="http://www.w3.org/2000/svg">
<g clip-path="url(#clip0_2433_62708)">
<path d="M42.4346 34.087H2.08696C0.934953 34.087 0 33.152 0 32C0 30.848 0.934953 29.9131 2.08696 29.9131H42.4346C43.5866 29.9131 44.5216 30.848 44.5216 32C44.5216 33.152 43.5866 34.087 42.4346 34.087Z" fill="#933FFF"/>
<path d="M31.3042 45.2171C30.7697 45.2171 30.2358 45.0143 29.8292 44.6052C29.014 43.79 29.014 42.4683 29.8292 41.6526L39.4849 31.9974L29.8292 22.3416C29.014 21.5264 29.014 20.2042 29.8292 19.389C30.6449 18.5738 31.9666 18.5738 32.7818 19.389L43.9121 30.5198C44.7273 31.335 44.7273 32.6567 43.9121 33.4719L32.7818 44.6021C32.3727 45.0143 31.8387 45.2171 31.3042 45.2171Z" fill="#933FFF"/>
<path d="M33.3914 62.6089C20.7276 62.6089 9.54736 54.9901 4.90316 43.197C4.48027 42.1286 5.00863 40.9154 6.08013 40.4925C7.14858 40.0752 8.36478 40.5954 8.78767 41.6725C12.7975 51.8541 22.4558 58.4349 33.3914 58.4349C47.9665 58.4349 59.8264 46.5751 59.8264 32C59.8264 17.4249 47.9665 5.56503 33.3914 5.56503C22.4558 5.56503 12.7975 12.1459 8.78767 22.3274C8.36172 23.4045 7.14858 23.9247 6.08013 23.5075C5.00863 23.0846 4.48027 21.8714 4.90316 20.803C9.54736 9.00983 20.7276 1.39111 33.3914 1.39111C50.268 1.39111 64.0003 15.1235 64.0003 32C64.0003 48.8765 50.268 62.6089 33.3914 62.6089Z" fill="#933FFF"/>
</g>
<defs>
<clipPath id="clip0_2433_62708">
<rect width="64" height="64" fill="white"/>
</clipPath>
</defs>
</svg>
