<svg width="44" height="44" viewBox="0 0 44 44" fill="none" xmlns="http://www.w3.org/2000/svg">
<path d="M21.25 13.75V11.5C21.25 11.3011 21.329 11.1103 21.4697 10.9697C21.6103 10.829 21.8011 10.75 22 10.75C22.1989 10.75 22.3897 10.829 22.5303 10.9697C22.671 11.1103 22.75 11.3011 22.75 11.5V13.75C22.75 13.9489 22.671 14.1397 22.5303 14.2803C22.3897 14.421 22.1989 14.5 22 14.5C21.8011 14.5 21.6103 14.421 21.4697 14.2803C21.329 14.1397 21.25 13.9489 21.25 13.75ZM28 22C28 23.1867 27.6481 24.3467 26.9888 25.3334C26.3295 26.3201 25.3925 27.0892 24.2961 27.5433C23.1997 27.9974 21.9933 28.1162 20.8295 27.8847C19.6656 27.6532 18.5965 27.0818 17.7574 26.2426C16.9182 25.4035 16.3468 24.3344 16.1153 23.1705C15.8838 22.0067 16.0026 20.8003 16.4567 19.7039C16.9108 18.6075 17.6799 17.6705 18.6666 17.0112C19.6533 16.3519 20.8133 16 22 16C23.5908 16.0017 25.1159 16.6344 26.2407 17.7593C27.3656 18.8841 27.9983 20.4092 28 22ZM26.5 22C26.5 21.11 26.2361 20.24 25.7416 19.4999C25.2471 18.7599 24.5443 18.1831 23.7221 17.8425C22.8998 17.5019 21.995 17.4128 21.1221 17.5865C20.2492 17.7601 19.4474 18.1887 18.818 18.818C18.1887 19.4474 17.7601 20.2492 17.5865 21.1221C17.4128 21.995 17.5019 22.8998 17.8425 23.7221C18.1831 24.5443 18.7599 25.2471 19.4999 25.7416C20.24 26.2361 21.11 26.5 22 26.5C23.1931 26.4988 24.337 26.0243 25.1806 25.1806C26.0243 24.337 26.4988 23.1931 26.5 22ZM15.4694 16.5306C15.6101 16.6714 15.801 16.7504 16 16.7504C16.199 16.7504 16.3899 16.6714 16.5306 16.5306C16.6714 16.3899 16.7504 16.199 16.7504 16C16.7504 15.801 16.6714 15.6101 16.5306 15.4694L15.0306 13.9694C14.8899 13.8286 14.699 13.7496 14.5 13.7496C14.301 13.7496 14.1101 13.8286 13.9694 13.9694C13.8286 14.1101 13.7496 14.301 13.7496 14.5C13.7496 14.699 13.8286 14.8899 13.9694 15.0306L15.4694 16.5306ZM15.4694 27.4694L13.9694 28.9694C13.8286 29.1101 13.7496 29.301 13.7496 29.5C13.7496 29.699 13.8286 29.8899 13.9694 30.0306C14.1101 30.1714 14.301 30.2504 14.5 30.2504C14.699 30.2504 14.8899 30.1714 15.0306 30.0306L16.5306 28.5306C16.6003 28.4609 16.6556 28.3782 16.6933 28.2872C16.731 28.1961 16.7504 28.0985 16.7504 28C16.7504 27.9015 16.731 27.8039 16.6933 27.7128C16.6556 27.6218 16.6003 27.5391 16.5306 27.4694C16.4609 27.3997 16.3782 27.3444 16.2872 27.3067C16.1961 27.269 16.0985 27.2496 16 27.2496C15.9015 27.2496 15.8039 27.269 15.7128 27.3067C15.6218 27.3444 15.5391 27.3997 15.4694 27.4694ZM28 16.75C28.0985 16.7501 28.1961 16.7307 28.2871 16.6931C28.3782 16.6555 28.4609 16.6003 28.5306 16.5306L30.0306 15.0306C30.1714 14.8899 30.2504 14.699 30.2504 14.5C30.2504 14.301 30.1714 14.1101 30.0306 13.9694C29.8899 13.8286 29.699 13.7496 29.5 13.7496C29.301 13.7496 29.1101 13.8286 28.9694 13.9694L27.4694 15.4694C27.3644 15.5743 27.2928 15.708 27.2639 15.8535C27.2349 15.9991 27.2497 16.15 27.3065 16.2871C27.3633 16.4242 27.4596 16.5414 27.583 16.6238C27.7065 16.7062 27.8516 16.7501 28 16.75ZM28.5306 27.4694C28.3899 27.3286 28.199 27.2496 28 27.2496C27.801 27.2496 27.6101 27.3286 27.4694 27.4694C27.3286 27.6101 27.2496 27.801 27.2496 28C27.2496 28.199 27.3286 28.3899 27.4694 28.5306L28.9694 30.0306C29.0391 30.1003 29.1218 30.1556 29.2128 30.1933C29.3039 30.231 29.4015 30.2504 29.5 30.2504C29.5985 30.2504 29.6961 30.231 29.7872 30.1933C29.8782 30.1556 29.9609 30.1003 30.0306 30.0306C30.1003 29.9609 30.1556 29.8782 30.1933 29.7872C30.231 29.6961 30.2504 29.5985 30.2504 29.5C30.2504 29.4015 30.231 29.3039 30.1933 29.2128C30.1556 29.1218 30.1003 29.0391 30.0306 28.9694L28.5306 27.4694ZM14.5 22C14.5 21.8011 14.421 21.6103 14.2803 21.4697C14.1397 21.329 13.9489 21.25 13.75 21.25H11.5C11.3011 21.25 11.1103 21.329 10.9697 21.4697C10.829 21.6103 10.75 21.8011 10.75 22C10.75 22.1989 10.829 22.3897 10.9697 22.5303C11.1103 22.671 11.3011 22.75 11.5 22.75H13.75C13.9489 22.75 14.1397 22.671 14.2803 22.5303C14.421 22.3897 14.5 22.1989 14.5 22ZM22 29.5C21.8011 29.5 21.6103 29.579 21.4697 29.7197C21.329 29.8603 21.25 30.0511 21.25 30.25V32.5C21.25 32.6989 21.329 32.8897 21.4697 33.0303C21.6103 33.171 21.8011 33.25 22 33.25C22.1989 33.25 22.3897 33.171 22.5303 33.0303C22.671 32.8897 22.75 32.6989 22.75 32.5V30.25C22.75 30.0511 22.671 29.8603 22.5303 29.7197C22.3897 29.579 22.1989 29.5 22 29.5ZM32.5 21.25H30.25C30.0511 21.25 29.8603 21.329 29.7197 21.4697C29.579 21.6103 29.5 21.8011 29.5 22C29.5 22.1989 29.579 22.3897 29.7197 22.5303C29.8603 22.671 30.0511 22.75 30.25 22.75H32.5C32.6989 22.75 32.8897 22.671 33.0303 22.5303C33.171 22.3897 33.25 22.1989 33.25 22C33.25 21.8011 33.171 21.6103 33.0303 21.4697C32.8897 21.329 32.6989 21.25 32.5 21.25Z" fill="#101010"/>
</svg>
