<svg width="24" height="24" viewBox="0 0 24 24" fill="none" xmlns="http://www.w3.org/2000/svg">
<g clip-path="url(#clip0_613_41467)">
<path d="M14.5446 5.73563C16.4247 6.80997 17.7933 7.59271 18.7826 8.2738C19.7758 8.9575 20.2912 9.47695 20.5535 9.98582C21.2047 11.2496 21.2047 12.7504 20.5535 14.0142C20.2912 14.5231 19.7758 15.0425 18.7826 15.7262C17.7933 16.4073 16.4247 17.19 14.5446 18.2644C12.6894 19.3245 11.3388 20.0955 10.2634 20.5958C9.18438 21.0977 8.48244 21.277 7.91398 21.2468C6.50358 21.172 5.21498 20.4242 4.45026 19.2367C4.14203 18.7581 3.94937 18.0598 3.84983 16.8739C3.75063 15.6919 3.75 14.1368 3.75 12C3.75 9.86323 3.75063 8.30809 3.84984 7.12614C3.94937 5.94025 4.14203 5.24188 4.45026 4.76328C5.21498 3.57583 6.50358 2.82803 7.91398 2.75321C8.48244 2.72305 9.18438 2.90225 10.2634 3.4042C11.3388 3.90448 12.6894 4.6755 14.5446 5.73563Z" stroke="white" stroke-width="1.5"/>
</g>
<defs>
<clipPath id="clip0_613_41467">
<rect width="24" height="24" fill="white"/>
</clipPath>
</defs>
</svg>
