<svg width="40" height="40" viewBox="0 0 40 40" fill="none" xmlns="http://www.w3.org/2000/svg">
  <g clip-path="url(#clip0_2108_54514)">
    <path
      d="M20 0C8.9543 0 0 8.9543 0 20C0 31.0457 8.9543 40 20 40C31.0457 40 40 31.0457 40 20C40 8.9543 31.0457 0 20 0ZM20 37.5C10.335 37.5 2.5 29.665 2.5 20C2.5 10.335 10.335 2.5 20 2.5C29.665 2.5 37.5 10.335 37.5 20C37.5 29.665 29.665 37.5 20 37.5Z"
      fill="currentColor"
    />
    <path
      d="M10.8875 19.6373L13.75 16.7623L16.6125 19.6373L18.3875 17.8623L15.5125 14.9998L18.3875 12.1373L16.6125 10.3623L13.75 13.2373L10.8875 10.3623L9.11255 12.1373L11.9875 14.9998L9.11255 17.8623L10.8875 19.6373Z"
      fill="currentColor"
    />
    <path
      d="M29.1125 10.3623L26.25 13.2373L23.3875 10.3623L21.6125 12.1373L24.4875 14.9998L21.6125 17.8623L23.3875 19.6373L26.25 16.7623L29.1125 19.6373L30.8875 17.8623L28.0125 14.9998L30.8875 12.1373L29.1125 10.3623Z"
      fill="currentColor"
    />
    <path
      d="M20 21.25C14.4772 21.25 10 25.7272 10 31.25H12.5C12.5 27.1079 15.8579 23.75 20 23.75C24.1421 23.75 27.5 27.1079 27.5 31.25H30C30 25.7272 25.5228 21.25 20 21.25Z"
      fill="currentColor"
    />
  </g>
  <defs>
    <clipPath id="clip0_2108_54514">
      <rect width="40" height="40" fill="white" />
    </clipPath>
  </defs>
</svg>
