<svg width="44" height="44" viewBox="0 0 44 44" fill="none" xmlns="http://www.w3.org/2000/svg">
  <path
    d="M31.5306 30.4693L26.8365 25.7762C28.1971 24.1428 28.8755 22.0478 28.7307 19.9269C28.5859 17.806 27.629 15.8226 26.0591 14.3893C24.4892 12.956 22.4271 12.1831 20.3019 12.2314C18.1766 12.2797 16.1518 13.1455 14.6486 14.6486C13.1455 16.1518 12.2797 18.1766 12.2314 20.3019C12.1831 22.4271 12.956 24.4892 14.3893 26.0591C15.8226 27.629 17.806 28.5859 19.9269 28.7307C22.0478 28.8755 24.1428 28.1971 25.7762 26.8365L30.4693 31.5306C30.539 31.6003 30.6218 31.6556 30.7128 31.6933C30.8038 31.731 30.9014 31.7504 31 31.7504C31.0985 31.7504 31.1961 31.731 31.2871 31.6933C31.3782 31.6556 31.4609 31.6003 31.5306 31.5306C31.6003 31.4609 31.6556 31.3782 31.6933 31.2871C31.731 31.1961 31.7504 31.0985 31.7504 31C31.7504 30.9014 31.731 30.8038 31.6933 30.7128C31.6556 30.6218 31.6003 30.539 31.5306 30.4693ZM13.75 20.5C13.75 19.1649 14.1459 17.8599 14.8875 16.7499C15.6292 15.6398 16.6835 14.7747 17.9169 14.2638C19.1503 13.7529 20.5075 13.6192 21.8168 13.8797C23.1262 14.1401 24.3289 14.783 25.2729 15.727C26.2169 16.671 26.8598 17.8737 27.1203 19.1831C27.3807 20.4925 27.247 21.8497 26.7362 23.0831C26.2253 24.3165 25.3601 25.3707 24.2501 26.1124C23.14 26.8541 21.835 27.25 20.5 27.25C18.7104 27.248 16.9946 26.5362 15.7292 25.2707C14.4638 24.0053 13.752 22.2896 13.75 20.5Z"
    fill="currentColor"
  />
</svg>
