<svg width="16" height="16" viewBox="0 0 16 16" fill="none" xmlns="http://www.w3.org/2000/svg">
<path d="M11.5021 9.99993C11.1686 9.99982 10.8384 10.0666 10.5311 10.1964C10.2239 10.3262 9.9458 10.5164 9.71335 10.7556L6.8321 8.90368C7.05875 8.32249 7.05875 7.67736 6.8321 7.09618L9.71335 5.2443C10.1461 5.68763 10.7281 5.95446 11.3465 5.99307C11.9648 6.03168 12.5755 5.83931 13.06 5.45327C13.5446 5.06722 13.8686 4.515 13.9691 3.90367C14.0697 3.29234 13.9396 2.66544 13.6042 2.14453C13.2688 1.62362 12.752 1.24581 12.1538 1.08433C11.5557 0.922859 10.9189 0.989233 10.3669 1.27059C9.81496 1.55194 9.38712 2.02823 9.16636 2.60711C8.94559 3.18599 8.94764 3.82622 9.1721 4.40368L6.29085 6.25555C5.9439 5.89935 5.4986 5.6547 5.01188 5.55289C4.52516 5.45108 4.01914 5.49672 3.55849 5.68399C3.09785 5.87126 2.70352 6.19164 2.4259 6.60418C2.14829 7.01672 2 7.50267 2 7.99993C2 8.49718 2.14829 8.98314 2.4259 9.39568C2.70352 9.80822 3.09785 10.1286 3.55849 10.3159C4.01914 10.5031 4.52516 10.5488 5.01188 10.447C5.4986 10.3451 5.9439 10.1005 6.29085 9.7443L9.1721 11.5962C8.97909 12.094 8.95052 12.6406 9.0906 13.1558C9.23068 13.671 9.53204 14.1279 9.95054 14.4595C10.3691 14.791 10.8827 14.9799 11.4163 14.9984C11.95 15.0169 12.4755 14.8641 12.916 14.5624C13.3565 14.2606 13.6888 13.8257 13.8642 13.3214C14.0397 12.8171 14.049 12.2699 13.891 11.7599C13.733 11.2499 13.4158 10.8039 12.9859 10.4872C12.556 10.1705 12.036 9.99973 11.5021 9.99993ZM11.5021 1.99993C11.7988 1.99993 12.0888 2.0879 12.3355 2.25272C12.5821 2.41754 12.7744 2.65181 12.8879 2.9259C13.0015 3.19999 13.0312 3.50159 12.9733 3.79256C12.9154 4.08353 12.7725 4.35081 12.5628 4.56059C12.353 4.77037 12.0857 4.91323 11.7947 4.9711C11.5038 5.02898 11.2022 4.99928 10.9281 4.88575C10.654 4.77221 10.4197 4.57996 10.2549 4.33328C10.0901 4.08661 10.0021 3.7966 10.0021 3.49993C10.0021 3.1021 10.1601 2.72057 10.4414 2.43927C10.7227 2.15796 11.1043 1.99993 11.5021 1.99993ZM4.5021 9.49993C4.20543 9.49993 3.91542 9.41195 3.66875 9.24713C3.42207 9.08231 3.22982 8.84804 3.11628 8.57395C3.00275 8.29986 2.97305 7.99826 3.03093 7.70729C3.0888 7.41632 3.23166 7.14904 3.44144 6.93927C3.65122 6.72949 3.9185 6.58663 4.20947 6.52875C4.50044 6.47087 4.80204 6.50058 5.07613 6.61411C5.35022 6.72764 5.58449 6.9199 5.74931 7.16657C5.91413 7.41325 6.0021 7.70325 6.0021 7.99993C6.0021 8.39775 5.84407 8.77928 5.56276 9.06059C5.28146 9.34189 4.89993 9.49993 4.5021 9.49993ZM11.5021 13.9999C11.2054 13.9999 10.9154 13.912 10.6687 13.7471C10.4221 13.5823 10.2298 13.348 10.1163 13.074C10.0028 12.7999 9.97305 12.4983 10.0309 12.2073C10.0888 11.9163 10.2317 11.649 10.4414 11.4393C10.6512 11.2295 10.9185 11.0866 11.2095 11.0287C11.5004 10.9709 11.802 11.0006 12.0761 11.1141C12.3502 11.2276 12.5845 11.4199 12.7493 11.6666C12.9141 11.9132 13.0021 12.2033 13.0021 12.4999C13.0021 12.8978 12.8441 13.2793 12.5628 13.5606C12.2815 13.8419 11.8999 13.9999 11.5021 13.9999Z" fill="currentColor"/>
</svg>
