<svg width="24" height="24" viewBox="0 0 24 24" fill="none" xmlns="http://www.w3.org/2000/svg">
<g clip-path="url(#clip0_155_1000)">
<path d="M12.2695 14.041H10.7754C10.7793 13.6895 10.8066 13.3867 10.8574 13.1328C10.9121 12.875 11.0039 12.6426 11.1328 12.4355C11.2656 12.2285 11.4414 12.0234 11.6602 11.8203C11.8437 11.6562 12.0039 11.5 12.1406 11.3516C12.2773 11.2031 12.3848 11.0508 12.4629 10.8945C12.541 10.7344 12.5801 10.5566 12.5801 10.3613C12.5801 10.1348 12.5449 9.94727 12.4746 9.79883C12.4082 9.64648 12.3066 9.53125 12.1699 9.45312C12.0371 9.375 11.8691 9.33594 11.666 9.33594C11.498 9.33594 11.3418 9.37305 11.1973 9.44727C11.0527 9.51758 10.9336 9.62695 10.8398 9.77539C10.75 9.92383 10.7031 10.1191 10.6992 10.3613H9C9.01172 9.82617 9.13477 9.38477 9.36914 9.03711C9.60742 8.68555 9.92578 8.42578 10.3242 8.25781C10.7227 8.08594 11.1699 8 11.666 8C12.2129 8 12.6816 8.08984 13.0723 8.26953C13.4629 8.44531 13.7617 8.70508 13.9687 9.04883C14.1758 9.38867 14.2793 9.80273 14.2793 10.291C14.2793 10.6309 14.2129 10.9336 14.0801 11.1992C13.9473 11.4609 13.7734 11.7051 13.5586 11.9316C13.3437 12.1582 13.1074 12.3926 12.8496 12.6348C12.627 12.834 12.4746 13.043 12.3926 13.2617C12.3145 13.4805 12.2734 13.7402 12.2695 14.041ZM10.5996 15.8516C10.5996 15.6016 10.6855 15.3945 10.8574 15.2305C11.0293 15.0625 11.2598 14.9785 11.5488 14.9785C11.834 14.9785 12.0625 15.0625 12.2344 15.2305C12.4102 15.3945 12.498 15.6016 12.498 15.8516C12.498 16.0937 12.4102 16.2988 12.2344 16.4668C12.0625 16.6348 11.834 16.7187 11.5488 16.7187C11.2598 16.7187 11.0293 16.6348 10.8574 16.4668C10.6855 16.2988 10.5996 16.0937 10.5996 15.8516Z" fill="#AAAAAA"/>
<circle cx="12" cy="12" r="9.25" stroke="#AAAAAA" stroke-width="1.5"/>
</g>
<defs>
<clipPath id="clip0_155_1000">
<rect width="24" height="24" fill="white"/>
</clipPath>
</defs>
</svg>
