<svg width="16" height="16" viewBox="0 0 16 16" fill="none" xmlns="http://www.w3.org/2000/svg">
<g clip-path="url(#clip0_614_26978)">
<path d="M14.1666 7.99996C14.1666 8.38788 13.9946 8.88682 13.6361 9.44315C13.2826 9.99164 12.773 10.5562 12.1632 11.0658C10.9315 12.0952 9.37494 12.8333 7.99992 12.8333C6.6249 12.8333 5.06829 12.0952 3.83663 11.0658C3.22688 10.5562 2.71721 9.99164 2.36373 9.44315C2.0052 8.88682 1.83325 8.38788 1.83325 7.99996C1.83325 7.61204 2.0052 7.1131 2.36373 6.55677C2.71721 6.00828 3.22688 5.44369 3.83663 4.93409C5.06829 3.90473 6.6249 3.16663 7.99992 3.16663C9.37494 3.16663 10.9315 3.90473 12.1632 4.93409C12.773 5.44369 13.2826 6.00828 13.6361 6.55677C13.9946 7.1131 14.1666 7.61204 14.1666 7.99996Z" stroke="currentColor"/>
<circle cx="8.00008" cy="7.99996" r="1.83333" stroke="currentColor"/>
</g>
<defs>
<clipPath id="clip0_614_26978">
<rect width="16" height="16" fill="currentColor"/>
</clipPath>
</defs>
</svg>
