<svg width="60" height="60" viewBox="0 0 60 60" fill="none" xmlns="http://www.w3.org/2000/svg">
<path d="M60 30C60 46.5691 46.5691 60 30 60C13.4309 60 0 46.5656 0 30C0 13.6723 13.0348 0.392578 29.2617 0C29.2488 0.179297 29.2418 0.362109 29.2418 0.544922C29.2418 2.27597 29.835 3.95475 30.9225 5.30155C32.01 6.64835 33.5261 7.58184 35.2184 7.94648C33.9032 10.2122 33.3645 12.8456 33.6842 15.4458C34.0038 18.046 35.1644 20.4704 36.9892 22.3502C38.8139 24.2299 41.2029 25.4618 43.7925 25.8584C46.382 26.255 49.0303 25.7946 51.334 24.5473C51.8593 26.3521 53.0379 27.8966 54.64 28.8797C56.2422 29.8629 58.153 30.2142 60 29.8652V30Z" fill="#FFB864"/>
<path d="M39.2566 54.6259C41.34 54.6259 43.0289 52.9364 43.0289 50.8524C43.0289 48.7684 41.34 47.079 39.2566 47.079C37.1733 47.079 35.4844 48.7684 35.4844 50.8524C35.4844 52.9364 37.1733 54.6259 39.2566 54.6259Z" fill="#784132"/>
<path d="M22.0301 10.8516C24.1134 10.8516 25.8023 9.16214 25.8023 7.07812C25.8023 4.99411 24.1134 3.30469 22.0301 3.30469C19.9467 3.30469 18.2578 4.99411 18.2578 7.07812C18.2578 9.16214 19.9467 10.8516 22.0301 10.8516Z" fill="#784132"/>
<path d="M13.5535 47.604C15.6369 47.604 17.3258 45.9146 17.3258 43.8306C17.3258 41.7466 15.6369 40.0571 13.5535 40.0571C11.4702 40.0571 9.78125 41.7466 9.78125 43.8306C9.78125 45.9146 11.4702 47.604 13.5535 47.604Z" fill="#784132"/>
<path d="M20.357 31.3711C22.6922 31.3711 24.5852 29.4776 24.5852 27.1418C24.5852 24.8061 22.6922 22.9125 20.357 22.9125C18.0219 22.9125 16.1289 24.8061 16.1289 27.1418C16.1289 29.4776 18.0219 31.3711 20.357 31.3711Z" fill="#784132"/>
<path d="M42.5203 5.25474C43.8432 5.25474 44.9156 4.18232 44.9156 2.85942C44.9156 1.53653 43.8432 0.464111 42.5203 0.464111C41.1974 0.464111 40.125 1.53653 40.125 2.85942C40.125 4.18232 41.1974 5.25474 42.5203 5.25474Z" fill="#784132"/>
<path d="M40.5438 16.3265C41.8666 16.3265 42.9391 15.2541 42.9391 13.9312C42.9391 12.6083 41.8666 11.5359 40.5438 11.5359C39.2209 11.5359 38.1484 12.6083 38.1484 13.9312C38.1484 15.2541 39.2209 16.3265 40.5438 16.3265Z" fill="#784132"/>
<path d="M51.616 15.1031C52.5603 15.1031 53.3258 14.3376 53.3258 13.3934C53.3258 12.4491 52.5603 11.6836 51.616 11.6836C50.6717 11.6836 49.9062 12.4491 49.9062 13.3934C49.9062 14.3376 50.6717 15.1031 51.616 15.1031Z" fill="#784132"/>
<path d="M10.3262 17.9099C11.8762 17.9099 13.1328 16.6533 13.1328 15.1033C13.1328 13.5532 11.8762 12.2966 10.3262 12.2966C8.77611 12.2966 7.51953 13.5532 7.51953 15.1033C7.51953 16.6533 8.77611 17.9099 10.3262 17.9099Z" fill="#784132"/>
<path d="M26.2285 39.0879C27.7786 39.0879 29.0352 37.8313 29.0352 36.2813C29.0352 34.7312 27.7786 33.4746 26.2285 33.4746C24.6785 33.4746 23.4219 34.7312 23.4219 36.2813C23.4219 37.8313 24.6785 39.0879 26.2285 39.0879Z" fill="#784132"/>
<path d="M35.5438 20.5337C35.2159 20.8605 34.8124 21.1012 34.369 21.2346C33.9257 21.368 33.4563 21.39 33.0025 21.2984C32.5487 21.2069 32.1245 21.0047 31.7675 20.7099C31.4106 20.4151 31.1319 20.0367 30.9563 19.6084C30.7807 19.18 30.7135 18.7149 30.7608 18.2544C30.808 17.7939 30.9682 17.3521 31.2272 16.9683C31.4861 16.5846 31.8358 16.2707 32.2452 16.0545C32.6545 15.8383 33.111 15.7265 33.5739 15.729H33.7251C33.9747 17.4438 34.5954 19.0834 35.5438 20.5337Z" fill="#784132"/>
<path d="M6.14102 31.2797C6.90278 31.2797 7.52031 30.6622 7.52031 29.9004C7.52031 29.1386 6.90278 28.5211 6.14102 28.5211C5.37925 28.5211 4.76172 29.1386 4.76172 29.9004C4.76172 30.6622 5.37925 31.2797 6.14102 31.2797Z" fill="#784132"/>
<path d="M24.848 56.3226C25.6098 56.3226 26.2273 55.705 26.2273 54.9433C26.2273 54.1815 25.6098 53.564 24.848 53.564C24.0863 53.564 23.4688 54.1815 23.4688 54.9433C23.4688 55.705 24.0863 56.3226 24.848 56.3226Z" fill="#784132"/>
<path d="M38.3875 31.5235C39.2315 31.5235 39.9156 30.8394 39.9156 29.9954C39.9156 29.1515 39.2315 28.4673 38.3875 28.4673C37.5435 28.4673 36.8594 29.1515 36.8594 29.9954C36.8594 30.8394 37.5435 31.5235 38.3875 31.5235Z" fill="#784132"/>
<path d="M29.2391 49.1321C30.083 49.1321 30.7672 48.4479 30.7672 47.6039C30.7672 46.76 30.083 46.0758 29.2391 46.0758C28.3951 46.0758 27.7109 46.76 27.7109 47.6039C27.7109 48.4479 28.3951 49.1321 29.2391 49.1321Z" fill="#784132"/>
<path d="M54.9266 34.5118C55.7705 34.5118 56.4547 33.8276 56.4547 32.9837C56.4547 32.1397 55.7705 31.4556 54.9266 31.4556C54.0826 31.4556 53.3984 32.1397 53.3984 32.9837C53.3984 33.8276 54.0826 34.5118 54.9266 34.5118Z" fill="#784132"/>
<path opacity="0.15" d="M59.9992 29.8652V30C59.9992 46.5691 46.5672 60 29.9992 60C22.2427 60.0105 14.7857 57.0061 9.20312 51.621C13.4571 53.8224 18.1782 54.9679 22.968 54.9609C38.7227 54.9609 51.6414 42.8144 52.8719 27.3738C53.7372 28.3775 54.8512 29.136 56.1021 29.5733C57.3531 30.0106 58.6971 30.1113 59.9992 29.8652Z" fill="black"/>
</svg>
