<svg width="16" height="16" viewBox="0 0 16 16" fill="none" xmlns="http://www.w3.org/2000/svg">
<g clip-path="url(#clip0_2012_24335)">
<path d="M8.16327 6.54541V9.64362H12.5566C12.3637 10.64 11.7848 11.4837 10.9165 12.0509L13.5658 14.0655C15.1095 12.6692 16 10.6182 16 8.18186C16 7.6146 15.9481 7.06909 15.8516 6.5455L8.16327 6.54541Z" fill="#4285F4"/>
<path d="M3.58834 9.52271L2.99081 9.97096L0.875732 11.5855C2.21896 14.1964 4.97202 16.0001 8.16311 16.0001C10.3671 16.0001 12.215 15.2873 13.5657 14.0655L10.9163 12.051C10.1891 12.531 9.2614 12.8219 8.16311 12.8219C6.04066 12.8219 4.23736 11.4183 3.59167 9.52732L3.58834 9.52271Z" fill="#34A853"/>
<path d="M0.875759 4.41455C0.3192 5.49088 0.00012207 6.70545 0.00012207 7.99998C0.00012207 9.29451 0.3192 10.5091 0.875759 11.5854C0.875759 11.5926 3.59196 9.51994 3.59196 9.51994C3.4287 9.03994 3.33219 8.53088 3.33219 7.99989C3.33219 7.46891 3.4287 6.95985 3.59196 6.47985L0.875759 4.41455Z" fill="#FBBC05"/>
<path d="M8.16328 3.18547C9.36553 3.18547 10.4342 3.59273 11.2876 4.3782L13.6252 2.08731C12.2078 0.792781 10.3674 0 8.16328 0C4.97219 0 2.21896 1.79637 0.875732 4.41458L3.59185 6.48004C4.23746 4.5891 6.04083 3.18547 8.16328 3.18547Z" fill="#EA4335"/>
</g>
<defs>
<clipPath id="clip0_2012_24335">
<rect width="16" height="16" fill="white"/>
</clipPath>
</defs>
</svg>
