<svg width="20" height="20" viewBox="0 0 20 20" fill="none" xmlns="http://www.w3.org/2000/svg">
<path d="M11.2811 10.0001C11.2811 13.1366 8.75574 15.6793 5.64055 15.6793C2.52535 15.6793 0 13.1366 0 10.0001C0 6.8635 2.52535 4.3208 5.64055 4.3208C8.7557 4.3208 11.2811 6.8635 11.2811 10.0001Z" fill="#AAAAAA"/>
<path d="M17.4689 10.0001C17.4689 12.9526 16.2062 15.3461 14.6486 15.3461C13.0911 15.3461 11.8284 12.9526 11.8284 10.0001C11.8284 7.04753 13.0911 4.65405 14.6486 4.65405C16.2063 4.65405 17.4689 7.04753 17.4689 10.0001Z" fill="#AAAAAA"/>
<path d="M20 10C20 12.6454 19.5559 14.7898 19.0081 14.7898C18.4602 14.7898 18.0162 12.6454 18.0162 10C18.0162 7.35466 18.4602 5.21021 19.0081 5.21021C19.5559 5.21021 20 7.35466 20 10Z" fill="#AAAAAA"/>
</svg>
