<svg fill="#fff" class="svg-icon" xmlns="http://www.w3.org/2000/svg" xmlns:xlink="http://www.w3.org/1999/xlink"><defs><symbol fill="none" viewBox="0 0 8 8" id="arrow-down_sprite"><g fill="#101010" clip-path="url(#arrow-down_sprite_a)"><path d="M0 1.6h1.6v1.6H0zM6.4 1.6H8v1.6H6.4zM1.6 3.2h1.6v1.6H1.6zM4.8 3.2h1.6v1.6H4.8z" /><path d="M3.2 4.8h1.6v1.6H3.2z" /></g><defs></defs></symbol><clipPath id="arrow-down_sprite_a"><path fill="#fff" d="M0 0h8v8H0z" /></clipPath><symbol fill="none" viewBox="0 0 8 8" id="arrow-left_sprite"><g fill="#101010" clip-path="url(#arrow-left_sprite_a)"><path d="M6.4 0v1.6H4.8V0zM6.4 6.4V8H4.8V6.4zM4.8 1.6v1.6H3.2V1.6zM4.8 4.8v1.6H3.2V4.8zM3.2 3.2v1.6H1.6V3.2z" /></g><defs></defs></symbol><clipPath id="arrow-left_sprite_a"><path fill="#fff" d="M8 0v8H0V0z" /></clipPath><symbol fill="none" viewBox="0 0 16 10" id="arrow-link_sprite"><path fill="#fff" d="M9.666.334v1.334H11V.334H9.666ZM11 1.668v1.333h1.333V1.668H11Zm1.333 1.333v1.334H.668v1.332h11.665V7h1.334V5.667h1.666V4.335h-1.666V3.001h-1.334Zm0 3.999H11v1.334h1.333V7ZM11 8.334H9.666v1.333H11V8.334Z" /></symbol><symbol fill="none" viewBox="0 0 16 10" id="arrow-right_sprite"><path fill="#101010" d="M9.665.334v1.334H11V.334H9.665ZM11 1.668V3h1.334V1.668h-1.334ZM12.333 3v1.334H.667v1.332h11.666V7h1.334V5.667h1.665V4.335h-1.665V3.001h-1.334Zm0 3.999h-1.334v1.334h1.334V7Zm-1.334 1.334H9.665v1.333H11V8.334Z" /></symbol></defs></svg>