<svg fill="#fff" class="svg-icon" xmlns="http://www.w3.org/2000/svg" xmlns:xlink="http://www.w3.org/1999/xlink"><defs><symbol fill="none" viewBox="0 0 8 8" id="arrow-down_sprite"><g fill="currentColor" clip-path="url(#arrow-down_sprite_a)"><path d="M0 1.6h1.6v1.6H0zM6.4 1.6H8v1.6H6.4zM1.6 3.2h1.6v1.6H1.6zM4.8 3.2h1.6v1.6H4.8z" /><path d="M3.2 4.8h1.6v1.6H3.2z" /></g><defs></defs></symbol><clipPath id="arrow-down_sprite_a"><path fill="#fff" d="M0 0h8v8H0z" /></clipPath><symbol fill="none" viewBox="0 0 8 8" id="arrow-left_sprite"><g fill="currentColor" clip-path="url(#arrow-left_sprite_a)"><path d="M6.4 0v1.6H4.8V0zM6.4 6.4V8H4.8V6.4zM4.8 1.6v1.6H3.2V1.6zM4.8 4.8v1.6H3.2V4.8zM3.2 3.2v1.6H1.6V3.2z" /></g><defs></defs></symbol><clipPath id="arrow-left_sprite_a"><path fill="#fff" d="M8 0v8H0V0z" /></clipPath><symbol fill="none" viewBox="0 0 16 10" id="arrow-link_sprite"><path fill="#fff" d="M9.666.334v1.334H11V.334H9.666ZM11 1.668v1.333h1.333V1.668H11Zm1.333 1.333v1.334H.668v1.332h11.665V7h1.334V5.667h1.666V4.335h-1.666V3.001h-1.334Zm0 3.999H11v1.334h1.333V7ZM11 8.334H9.666v1.333H11V8.334Z" /></symbol><symbol fill="none" viewBox="0 0 8 8" id="arrow-right-cat_sprite"><g fill="#fff" clip-path="url(#arrow-right-cat_sprite_a)"><path d="M1.6 8V6.4h1.6V8zM1.6 1.6V0h1.6v1.6zM3.2 6.4V4.8h1.6v1.6zM3.2 3.2V1.6h1.6v1.6z" /><path d="M4.8 4.8V3.2h1.6v1.6z" /></g><defs></defs></symbol><clipPath id="arrow-right-cat_sprite_a"><path fill="#fff" d="M0 8V0h8v8z" /></clipPath><symbol fill="none" viewBox="0 0 16 10" id="arrow-right_sprite"><path fill="#101010" d="M9.665.334v1.334H11V.334H9.665ZM11 1.668V3h1.334V1.668h-1.334ZM12.333 3v1.334H.667v1.332h11.666V7h1.334V5.667h1.665V4.335h-1.665V3.001h-1.334Zm0 3.999h-1.334v1.334h1.334V7Zm-1.334 1.334H9.665v1.333H11V8.334Z" /></symbol><symbol fill="none" viewBox="0 0 40 40" id="close-g_sprite"><g stroke="currentColor" stroke-linecap="round" stroke-width="1.5" clip-path="url(#close-g_sprite_a)"><path d="m15.75 15.75 8.485 8.485M15.75 24.235l8.485-8.485" /></g><defs></defs></symbol><clipPath id="close-g_sprite_a"><path fill="#fff" d="M8 8h24v24H8z" /></clipPath><symbol fill="none" viewBox="0 0 20 20" id="close_sprite"><path fill="currentColor" d="M3.75 13.75h2.5v2.5h-2.5zM6.25 11.25h2.5v2.5h-2.5zM8.75 8.75h2.5v2.5h-2.5z" /><path fill="currentColor" d="M3.75 13.75h2.5v2.5h-2.5zM6.25 11.25h2.5v2.5h-2.5zM8.75 8.75h2.5v2.5h-2.5zM11.25 6.25h2.5v2.5h-2.5zM13.75 3.75h2.5v2.5h-2.5zM16.25 13.75h-2.5v2.5h2.5zM13.75 11.25h-2.5v2.5h2.5z" /><path fill="currentColor" d="M11.25 8.75h-2.5v2.5h2.5zM8.75 6.25h-2.5v2.5h2.5zM6.25 3.75h-2.5v2.5h2.5z" /></symbol><symbol fill="none" viewBox="0 0 44 44" id="dark-theme_sprite"><path stroke="#fff" stroke-linecap="round" stroke-linejoin="round" stroke-width="1.5" d="M29.934 23.622A8.616 8.616 0 0 1 19.312 13a8.625 8.625 0 1 0 10.622 10.622Z" /></symbol><symbol fill="none" viewBox="0 0 16 16" id="date_sprite"><g stroke="currentColor" clip-path="url(#date_sprite_a)"><circle cx="5.167" cy="8.583" r=".417" stroke-width=".667" /><circle cx="5.167" cy="11.417" r=".417" stroke-width=".667" /><circle cx="8" cy="8.583" r=".417" stroke-width=".667" /><circle cx="8" cy="11.417" r=".417" stroke-width=".667" /><circle cx="10.834" cy="8.583" r=".417" stroke-width=".667" /><circle cx="10.834" cy="11.417" r=".417" stroke-width=".667" /><path stroke-linecap="round" d="M10.667 2.688V1.02M5.333 2.688V1.02M13.667 5.458H2.334" /><rect width="12.333" height="12.333" x="1.833" y="1.833" rx="3.5" /></g><defs></defs></symbol><clipPath id="date_sprite_a"><path fill="#fff" d="M0 0h16v16H0z" /></clipPath><symbol fill="none" viewBox="0 0 20 20" id="external_sprite"><path fill="currentColor" d="M17.5 8.125a.625.625 0 1 1-1.25 0v-3.49l-5.182 5.182a.625.625 0 0 1-.884-.884l5.182-5.183h-3.491a.625.625 0 1 1 0-1.25h5a.625.625 0 0 1 .625.625v5ZM14.375 10a.624.624 0 0 0-.625.625v5.625h-10v-10h5.625a.625.625 0 0 0 0-1.25H3.75A1.25 1.25 0 0 0 2.5 6.25v10a1.25 1.25 0 0 0 1.25 1.25h10A1.25 1.25 0 0 0 15 16.25v-5.625a.624.624 0 0 0-.625-.625Z" /></symbol><symbol fill="none" viewBox="0 0 16 16" id="facebook_sprite"><path fill="currentColor" d="M12 5.5H9v-2a1 1 0 0 1 1-1h1V0H9a3 3 0 0 0-3 3v2.5H4V8h2v8h3V8h2l1-2.5Z" /></symbol><symbol fill="none" viewBox="0 0 20 20" id="favorite_sprite"><path fill="currentColor" d="M17.422 4.453a4.537 4.537 0 0 0-6.4-.008L10 5.395l-1.023-.953a4.531 4.531 0 1 0-6.4 6.417l6.981 7.083a.624.624 0 0 0 .89 0l6.974-7.083a4.531 4.531 0 0 0 0-6.406Zm-.887 5.528L10 16.609 3.46 9.975a3.281 3.281 0 1 1 4.641-4.641l.016.016 1.457 1.355a.625.625 0 0 0 .851 0l1.457-1.355.016-.016a3.281 3.281 0 0 1 4.638 4.644l-.001.003Z" /></symbol><symbol fill="none" viewBox="0 0 16 16" id="fb_sprite"><path fill="currentColor" d="M12 5.5H9v-2a1 1 0 0 1 1-1h1V0H9a3 3 0 0 0-3 3v2.5H4V8h2v8h3V8h2l1-2.5Z" /></symbol><symbol fill="none" viewBox="0 0 16 16" id="inst_sprite"><g fill="currentColor" clip-path="url(#inst_sprite_a)"><path d="M11 0H5a5 5 0 0 0-5 5v6a5 5 0 0 0 5 5h6a5 5 0 0 0 5-5V5a5 5 0 0 0-5-5Zm3.5 11c0 1.93-1.57 3.5-3.5 3.5H5c-1.93 0-3.5-1.57-3.5-3.5V5c0-1.93 1.57-3.5 3.5-3.5h6c1.93 0 3.5 1.57 3.5 3.5v6Z" /><path d="M8 4a4 4 0 1 0 0 8 4 4 0 0 0 0-8Zm0 6.5A2.503 2.503 0 0 1 5.5 8c0-1.379 1.122-2.5 2.5-2.5s2.5 1.121 2.5 2.5c0 1.378-1.122 2.5-2.5 2.5ZM12.3 4.233a.533.533 0 1 0 0-1.066.533.533 0 0 0 0 1.066Z" /></g><defs></defs></symbol><clipPath id="inst_sprite_a"><path fill="#fff" d="M0 0h16v16H0z" /></clipPath><symbol fill="none" viewBox="0 0 20 20" id="instagram_sprite"><g fill="currentColor" clip-path="url(#instagram_sprite_a)"><path d="M13.75 0h-7.5A6.25 6.25 0 0 0 0 6.25v7.5A6.25 6.25 0 0 0 6.25 20h7.5A6.25 6.25 0 0 0 20 13.75v-7.5A6.25 6.25 0 0 0 13.75 0Zm4.375 13.75a4.38 4.38 0 0 1-4.375 4.375h-7.5a4.38 4.38 0 0 1-4.375-4.375v-7.5A4.38 4.38 0 0 1 6.25 1.875h7.5a4.38 4.38 0 0 1 4.375 4.375v7.5Z" /><path d="M10 5a5 5 0 1 0 0 10 5 5 0 0 0 0-10Zm0 8.125A3.13 3.13 0 0 1 6.875 10 3.129 3.129 0 0 1 10 6.875 3.129 3.129 0 0 1 13.125 10 3.13 3.13 0 0 1 10 13.125ZM15.375 5.291a.666.666 0 1 0 0-1.332.666.666 0 0 0 0 1.332Z" /></g><defs></defs></symbol><clipPath id="instagram_sprite_a"><path fill="#fff" d="M0 0h20v20H0z" /></clipPath><symbol fill="none" viewBox="0 0 32 32" id="interaction_sprite"><circle cx="16" cy="10.5" r="1.75" fill="#8F8F8F" /><circle cx="16" cy="16" r="1.75" fill="#8F8F8F" /><circle cx="16" cy="21.5" r="1.75" fill="#8F8F8F" /></symbol><symbol fill="none" viewBox="0 0 44 44" id="light-theme_sprite"><path fill="#101010" d="M21.25 13.75V11.5a.75.75 0 1 1 1.5 0v2.25a.75.75 0 1 1-1.5 0ZM28 22a6 6 0 1 1-6-6 6.006 6.006 0 0 1 6 6Zm-1.5 0a4.5 4.5 0 1 0-9 0 4.5 4.5 0 0 0 9 0Zm-11.03-5.47a.75.75 0 1 0 1.06-1.06l-1.5-1.5a.75.75 0 1 0-1.06 1.06l1.5 1.5Zm0 10.94-1.5 1.5a.75.75 0 1 0 1.06 1.06l1.5-1.5a.75.75 0 1 0-1.06-1.06ZM28 16.75a.75.75 0 0 0 .53-.22l1.5-1.5a.75.75 0 1 0-1.06-1.06l-1.5 1.5a.75.75 0 0 0 .53 1.28Zm.53 10.72a.75.75 0 1 0-1.06 1.06l1.5 1.5a.75.75 0 1 0 1.06-1.06l-1.5-1.5ZM14.5 22a.75.75 0 0 0-.75-.75H11.5a.75.75 0 1 0 0 1.5h2.25a.75.75 0 0 0 .75-.75Zm7.5 7.5a.75.75 0 0 0-.75.75v2.25a.75.75 0 1 0 1.5 0v-2.25a.75.75 0 0 0-.75-.75Zm10.5-8.25h-2.25a.75.75 0 1 0 0 1.5h2.25a.75.75 0 1 0 0-1.5Z" /></symbol><symbol fill="none" viewBox="0 0 16 16" id="linkedin_sprite"><g fill="currentColor" clip-path="url(#linkedin_sprite_a)"><path d="M2.311.813c-1.1 0-1.819.722-1.819 1.671 0 .928.698 1.671 1.777 1.671h.02c1.122 0 1.82-.743 1.82-1.67-.02-.95-.698-1.672-1.798-1.672ZM.682 5.476h3.216v9.674H.682V5.476ZM11.79 5.249c-1.734 0-2.898 1.63-2.898 1.63V5.476H5.677v9.674h3.215V9.748c0-.29.021-.578.106-.785.233-.578.762-1.176 1.65-1.176 1.163 0 1.629.887 1.629 2.188v5.175h3.215V9.603c0-2.971-1.586-4.354-3.702-4.354Z" /></g><defs></defs></symbol><clipPath id="linkedin_sprite_a"><path fill="#fff" d="M0 0h16v16H0z" /></clipPath><symbol fill="none" viewBox="0 0 20 20" id="medium_sprite"><path fill="currentColor" d="M11.281 10c0 3.137-2.525 5.68-5.64 5.68C2.525 15.68 0 13.136 0 10c0-3.136 2.525-5.68 5.64-5.68 3.116 0 5.641 2.543 5.641 5.68ZM17.469 10c0 2.953-1.263 5.346-2.82 5.346-1.558 0-2.82-2.393-2.82-5.346 0-2.952 1.262-5.346 2.82-5.346 1.557 0 2.82 2.394 2.82 5.346ZM20 10c0 2.645-.444 4.79-.991 4.79-.548 0-.992-2.145-.992-4.79s.444-4.79.992-4.79c.547 0 .991 2.145.991 4.79Z" /></symbol><symbol fill="none" viewBox="0 0 24 24" id="mobile-nav-close_sprite"><g stroke="currentColor" stroke-linecap="round" stroke-width="1.5" clip-path="url(#mobile-nav-close_sprite_a)"><path d="m7.75 7.75 8.485 8.485M7.75 16.235l8.485-8.485" /></g><defs></defs></symbol><clipPath id="mobile-nav-close_sprite_a"><path fill="#fff" d="M0 0h24v24H0z" /></clipPath><symbol fill="none" viewBox="0 0 24 24" id="mobile-nav_sprite"><g stroke="currentColor" stroke-linecap="round" stroke-width="1.5" clip-path="url(#mobile-nav_sprite_a)"><path d="M6 15h12M6 9h12" /></g><defs></defs></symbol><clipPath id="mobile-nav_sprite_a"><path fill="#fff" d="M0 0h24v24H0z" /></clipPath><symbol fill="none" viewBox="0 0 24 24" id="play_sprite"><g clip-path="url(#play_sprite_a)"><path stroke="#fff" stroke-width="1.5" d="M14.545 5.736c1.88 1.074 3.248 1.857 4.238 2.538.993.684 1.508 1.203 1.77 1.712a4.398 4.398 0 0 1 0 4.028c-.262.51-.777 1.029-1.77 1.712-.99.681-2.358 1.464-4.238 2.538-1.856 1.06-3.206 1.832-4.282 2.332-1.079.502-1.78.681-2.349.65a4.397 4.397 0 0 1-3.464-2.01c-.308-.478-.5-1.176-.6-2.362-.1-1.182-.1-2.737-.1-4.874 0-2.137 0-3.692.1-4.874.1-1.186.292-1.884.6-2.363a4.397 4.397 0 0 1 3.464-2.01c.568-.03 1.27.15 2.35.651 1.075.5 2.425 1.272 4.28 2.332Z" /></g><defs></defs></symbol><clipPath id="play_sprite_a"><path fill="#fff" d="M0 0h24v24H0z" /></clipPath><symbol fill="none" viewBox="0 0 1172 272" id="prepare_sprite"><g fill="currentColor" mask="url(#prepare_sprite_b)"><rect width="240" height="132" rx="16" /><rect width="240" height="132" x="248" rx="16" /><rect width="240" height="132" y="140" rx="16" /><rect width="240" height="132" x="248" y="140" rx="16" /><rect width="240" height="132" x="932" rx="16" /><rect width="240" height="132" x="684" rx="16" /><rect width="240" height="132" x="932" y="140" rx="16" /><rect width="240" height="132" x="684" y="140" rx="16" /></g><defs></defs></symbol><mask id="prepare_sprite_b" width="1172" height="272" x="0" y="0" maskUnits="userSpaceOnUse" style="mask-type:alpha"><path fill="url(#prepare_sprite_a)" d="M0 0h1172v272H0z" /></mask><linearGradient id="prepare_sprite_a" x1="0" x2="1172" y1="272" y2="272" gradientUnits="userSpaceOnUse"><stop stop-color="currentColor" /><stop offset=".21" stop-color="currentColor" stop-opacity=".35" /><stop offset=".505" stop-color="currentColor" stop-opacity="0" /><stop offset=".789" stop-color="currentColor" stop-opacity=".35" /><stop offset="1" stop-color="currentColor" /></linearGradient><symbol fill="none" viewBox="0 0 20 20" id="reddit_sprite"><g clip-path="url(#reddit_sprite_a)"><path fill="currentColor" d="M17.77 7.757c-.63 0-1.187.266-1.596.68-1.504-1.057-3.532-1.737-5.78-1.81l1.168-5.338 3.717.847c0 .923.742 1.677 1.652 1.677.927 0 1.673-.774 1.673-1.698 0-.924-.74-1.698-1.672-1.698-.65 0-1.21.397-1.489.94L11.338.435c-.207-.056-.41.094-.465.304L9.592 6.623c-2.23.095-4.237.774-5.746 1.831a2.227 2.227 0 0 0-1.619-.697c-2.343 0-3.11 3.19-.965 4.281-.075.338-.11.698-.11 1.057 0 3.584 3.98 6.488 8.866 6.488 4.906 0 8.885-2.904 8.885-6.488 0-.36-.037-.736-.13-1.074 2.103-1.095 1.329-4.263-1.002-4.264ZM4.668 12.265c0-.94.742-1.698 1.674-1.698.91 0 1.652.752 1.652 1.698 0 .924-.741 1.678-1.652 1.678a1.672 1.672 0 0 1-1.674-1.678Zm9.033 3.998c-1.534 1.557-5.863 1.557-7.398 0-.17-.15-.17-.415 0-.585a.4.4 0 0 1 .556 0c1.172 1.219 5.059 1.24 6.281 0a.4.4 0 0 1 .557 0c.172.171.172.436.004.585Zm-.034-2.317c-.91 0-1.652-.753-1.652-1.676 0-.94.742-1.698 1.652-1.698.927 0 1.673.752 1.673 1.698a1.68 1.68 0 0 1-1.673 1.676Z" /></g><defs></defs></symbol><clipPath id="reddit_sprite_a"><path fill="#fff" d="M0 0h20v20H0z" /></clipPath><symbol fill="none" viewBox="0 0 40 40" id="sad_sprite"><g fill="currentColor" clip-path="url(#sad_sprite_a)"><path d="M20 0C8.954 0 0 8.954 0 20s8.954 20 20 20 20-8.954 20-20S31.046 0 20 0Zm0 37.5c-9.665 0-17.5-7.835-17.5-17.5S10.335 2.5 20 2.5 37.5 10.335 37.5 20 29.665 37.5 20 37.5Z" /><path d="m10.887 19.637 2.863-2.875 2.863 2.875 1.774-1.775L15.512 15l2.875-2.863-1.774-1.775-2.863 2.875-2.863-2.875-1.774 1.775L11.988 15l-2.875 2.862 1.774 1.775ZM29.113 10.362l-2.863 2.875-2.863-2.875-1.774 1.775L24.488 15l-2.875 2.862 1.774 1.775 2.863-2.875 2.863 2.875 1.774-1.775L28.012 15l2.875-2.863-1.774-1.775ZM20 21.25c-5.523 0-10 4.477-10 10h2.5a7.5 7.5 0 0 1 15 0H30c0-5.523-4.477-10-10-10Z" /></g><defs></defs></symbol><clipPath id="sad_sprite_a"><path fill="#fff" d="M0 0h40v40H0z" /></clipPath><symbol fill="none" viewBox="0 0 44 44" id="search_sprite"><path fill="currentColor" d="m31.53 30.47-4.694-4.694a8.26 8.26 0 1 0-1.06 1.06l4.693 4.695a.75.75 0 0 0 1.062-1.062ZM13.75 20.5a6.75 6.75 0 1 1 6.75 6.75 6.757 6.757 0 0 1-6.75-6.75Z" /></symbol><symbol fill="none" viewBox="0 0 16 16" id="share_sprite"><path fill="currentColor" d="M11.502 10a2.493 2.493 0 0 0-1.789.756l-2.88-1.852a2.487 2.487 0 0 0 0-1.808l2.88-1.852a2.5 2.5 0 1 0-.54-.84L6.29 6.256a2.5 2.5 0 1 0 0 3.488l2.881 1.852A2.5 2.5 0 1 0 11.502 10Zm0-8a1.5 1.5 0 1 1 0 3 1.5 1.5 0 0 1 0-3Zm-7 7.5a1.5 1.5 0 1 1 0-3 1.5 1.5 0 0 1 0 3Zm7 4.5a1.5 1.5 0 1 1 0-3 1.5 1.5 0 0 1 0 3Z" /></symbol><symbol fill="none" viewBox="0 0 20 20" id="telegram_sprite"><g clip-path="url(#telegram_sprite_a)"><path fill="currentColor" d="m20 1.972-3.163 15.949s-.443 1.105-1.66.575l-7.332-5.612c.986-.886 8.631-7.76 8.966-8.072.517-.482.196-.77-.405-.405L5.113 11.58.756 10.112S.07 9.87.004 9.338c-.067-.53.774-.818.774-.818L18.54 1.552S20 .91 20 1.972Z" /></g><defs></defs></symbol><clipPath id="telegram_sprite_a"><path fill="#fff" d="M0 0h20v20H0z" /></clipPath><symbol fill="none" viewBox="0 0 20 20" id="time_sprite"><g stroke="#7D7D7D" stroke-width="1.25" clip-path="url(#time_sprite_a)"><rect width="15.417" height="15.417" x="2.291" y="2.292" rx="7.708" /><path stroke-linecap="round" stroke-linejoin="round" d="M9.999 5v5M14.999 10h-5" /></g><defs></defs></symbol><clipPath id="time_sprite_a"><path fill="#fff" d="M0 0h20v20H0z" /></clipPath><symbol fill="none" viewBox="0 0 24 24" id="tooltip_sprite"><g clip-path="url(#tooltip_sprite_a)"><path fill="#AAA" d="M12.27 14.041h-1.495c.004-.351.032-.654.082-.908.055-.258.147-.49.276-.697.133-.207.308-.413.527-.616.184-.164.344-.32.48-.468.137-.149.245-.301.323-.457a1.2 1.2 0 0 0 .117-.534c0-.226-.035-.414-.105-.562a.714.714 0 0 0-.305-.346.982.982 0 0 0-.504-.117 1.01 1.01 0 0 0-.469.111.87.87 0 0 0-.357.328c-.09.149-.137.344-.14.586H9c.012-.535.135-.976.37-1.324.237-.351.556-.611.954-.78A3.355 3.355 0 0 1 11.666 8c.547 0 1.016.09 1.406.27.39.175.69.435.897.779.207.34.31.754.31 1.242 0 .34-.066.643-.199.908a3.105 3.105 0 0 1-.521.733c-.215.226-.452.46-.71.703a1.62 1.62 0 0 0-.456.627c-.079.218-.12.478-.123.779Zm-1.67 1.81c0-.25.085-.457.257-.62.172-.168.403-.252.692-.252.285 0 .514.084.685.252a.813.813 0 0 1 .264.62.818.818 0 0 1-.264.616c-.171.168-.4.252-.685.252-.29 0-.52-.084-.692-.252a.827.827 0 0 1-.257-.615Z" /><circle cx="12" cy="12" r="9.25" stroke="#AAA" stroke-width="1.5" /></g><defs></defs></symbol><clipPath id="tooltip_sprite_a"><path fill="#fff" d="M0 0h24v24H0z" /></clipPath><symbol fill="none" viewBox="0 0 16 16" id="twitter_sprite"><g clip-path="url(#twitter_sprite_a)"><path fill="currentColor" d="M16 3.039a6.839 6.839 0 0 1-1.89.518 3.262 3.262 0 0 0 1.443-1.813 6.555 6.555 0 0 1-2.08.794 3.28 3.28 0 0 0-5.674 2.243c0 .26.022.51.076.748a9.284 9.284 0 0 1-6.761-3.431 3.285 3.285 0 0 0 1.008 4.384A3.24 3.24 0 0 1 .64 6.078v.036a3.295 3.295 0 0 0 2.628 3.223 3.274 3.274 0 0 1-.86.108 2.9 2.9 0 0 1-.621-.056 3.311 3.311 0 0 0 3.065 2.285 6.59 6.59 0 0 1-4.067 1.399c-.269 0-.527-.012-.785-.045A9.234 9.234 0 0 0 5.032 14.5c6.036 0 9.336-5 9.336-9.334 0-.145-.005-.285-.012-.424A6.544 6.544 0 0 0 16 3.039Z" /></g><defs></defs></symbol><clipPath id="twitter_sprite_a"><path fill="#fff" d="M0 0h16v16H0z" /></clipPath><symbol fill="none" viewBox="0 0 20 20" id="twitter_sprite"><g clip-path="url(#twitter_sprite_a)"><path fill="currentColor" d="M20 3.799a8.549 8.549 0 0 1-2.363.647 4.077 4.077 0 0 0 1.804-2.266 8.192 8.192 0 0 1-2.6.992A4.099 4.099 0 0 0 9.75 5.976c0 .325.027.638.095.935-3.409-.166-6.425-1.8-8.451-4.288A4.128 4.128 0 0 0 .83 4.694c0 1.42.732 2.679 1.821 3.407A4.05 4.05 0 0 1 .8 7.597v.045a4.119 4.119 0 0 0 3.285 4.03 4.09 4.09 0 0 1-1.075.134c-.262 0-.527-.015-.776-.07.531 1.624 2.038 2.818 3.831 2.856a8.238 8.238 0 0 1-5.084 1.75A7.67 7.67 0 0 1 0 16.284a11.543 11.543 0 0 0 6.29 1.84c7.545 0 11.67-6.25 11.67-11.668 0-.18-.006-.356-.015-.53A8.179 8.179 0 0 0 20 3.8Z" /></g><defs></defs></symbol><clipPath id="twitter_sprite_a"><path fill="#fff" d="M0 0h20v20H0z" /></clipPath><symbol fill="none" viewBox="0 0 16 16" id="views_sprite"><g stroke="currentColor" clip-path="url(#views_sprite_a)"><path d="M14.167 8c0 .388-.172.887-.53 1.443-.354.549-.864 1.113-1.474 1.623-1.232 1.03-2.788 1.767-4.163 1.767-1.375 0-2.932-.738-4.163-1.767-.61-.51-1.12-1.074-1.473-1.623-.359-.556-.53-1.055-.53-1.443 0-.388.171-.887.53-1.443.353-.549.863-1.113 1.473-1.623C5.068 3.904 6.625 3.167 8 3.167c1.375 0 2.931.738 4.163 1.767.61.51 1.12 1.074 1.473 1.623.359.556.53 1.055.53 1.443Z" /><circle cx="8" cy="8" r="1.833" /></g><defs></defs></symbol><clipPath id="views_sprite_a"><path fill="currentColor" d="M0 0h16v16H0z" /></clipPath><symbol fill="none" viewBox="0 0 24 24" id="zoom_sprite"><g stroke="#fff" stroke-width="1.5" clip-path="url(#zoom_sprite_a)"><path stroke-linecap="round" d="M9 11h6M12 8v6" /><circle cx="11.724" cy="10.724" r="8.724" /><path stroke-linecap="round" d="M17.176 18.357 20.027 22" /></g><defs></defs></symbol><clipPath id="zoom_sprite_a"><path fill="#fff" d="M0 0h24v24H0z" /></clipPath></defs></svg>