<svg fill="#fff" class="svg-icon" xmlns="http://www.w3.org/2000/svg" xmlns:xlink="http://www.w3.org/1999/xlink"><defs><symbol fill="none" viewBox="0 0 8 8" id="arrow-down_sprite"><g fill="#101010" clip-path="url(#arrow-down_sprite_a)"><path d="M0 1.6h1.6v1.6H0zM6.4 1.6H8v1.6H6.4zM1.6 3.2h1.6v1.6H1.6zM4.8 3.2h1.6v1.6H4.8z" /><path d="M3.2 4.8h1.6v1.6H3.2z" /></g><defs></defs></symbol><clipPath id="arrow-down_sprite_a"><path fill="#fff" d="M0 0h8v8H0z" /></clipPath><symbol fill="none" viewBox="0 0 8 8" id="arrow-left_sprite"><g fill="#101010" clip-path="url(#arrow-left_sprite_a)"><path d="M6.4 0v1.6H4.8V0zM6.4 6.4V8H4.8V6.4zM4.8 1.6v1.6H3.2V1.6zM4.8 4.8v1.6H3.2V4.8zM3.2 3.2v1.6H1.6V3.2z" /></g><defs></defs></symbol><clipPath id="arrow-left_sprite_a"><path fill="#fff" d="M8 0v8H0V0z" /></clipPath><symbol fill="none" viewBox="0 0 16 10" id="arrow-link_sprite"><path fill="#fff" d="M9.666.334v1.334H11V.334H9.666ZM11 1.668v1.333h1.333V1.668H11Zm1.333 1.333v1.334H.668v1.332h11.665V7h1.334V5.667h1.666V4.335h-1.666V3.001h-1.334Zm0 3.999H11v1.334h1.333V7ZM11 8.334H9.666v1.333H11V8.334Z" /></symbol><symbol fill="none" viewBox="0 0 8 8" id="arrow-right-cat_sprite"><g fill="#fff" clip-path="url(#arrow-right-cat_sprite_a)"><path d="M1.6 8V6.4h1.6V8zM1.6 1.6V0h1.6v1.6zM3.2 6.4V4.8h1.6v1.6zM3.2 3.2V1.6h1.6v1.6z" /><path d="M4.8 4.8V3.2h1.6v1.6z" /></g><defs></defs></symbol><clipPath id="arrow-right-cat_sprite_a"><path fill="#fff" d="M0 8V0h8v8z" /></clipPath><symbol fill="none" viewBox="0 0 16 10" id="arrow-right_sprite"><path fill="#101010" d="M9.665.334v1.334H11V.334H9.665ZM11 1.668V3h1.334V1.668h-1.334ZM12.333 3v1.334H.667v1.332h11.666V7h1.334V5.667h1.665V4.335h-1.665V3.001h-1.334Zm0 3.999h-1.334v1.334h1.334V7Zm-1.334 1.334H9.665v1.333H11V8.334Z" /></symbol><symbol fill="none" viewBox="0 0 20 20" id="close_sprite"><path fill="#101010" d="M3.75 13.75h2.5v2.5h-2.5zM6.25 11.25h2.5v2.5h-2.5zM8.75 8.75h2.5v2.5h-2.5z" /><path fill="#101010" d="M3.75 13.75h2.5v2.5h-2.5zM6.25 11.25h2.5v2.5h-2.5zM8.75 8.75h2.5v2.5h-2.5zM11.25 6.25h2.5v2.5h-2.5zM13.75 3.75h2.5v2.5h-2.5zM16.25 13.75h-2.5v2.5h2.5zM13.75 11.25h-2.5v2.5h2.5z" /><path fill="#101010" d="M11.25 8.75h-2.5v2.5h2.5zM8.75 6.25h-2.5v2.5h2.5zM6.25 3.75h-2.5v2.5h2.5z" /></symbol><symbol fill="none" viewBox="0 0 20 20" id="external_sprite"><path fill="currentColor" d="M17.5 8.125a.625.625 0 1 1-1.25 0v-3.49l-5.182 5.182a.625.625 0 0 1-.884-.884l5.182-5.183h-3.491a.625.625 0 1 1 0-1.25h5a.625.625 0 0 1 .625.625v5ZM14.375 10a.624.624 0 0 0-.625.625v5.625h-10v-10h5.625a.625.625 0 0 0 0-1.25H3.75A1.25 1.25 0 0 0 2.5 6.25v10a1.25 1.25 0 0 0 1.25 1.25h10A1.25 1.25 0 0 0 15 16.25v-5.625a.624.624 0 0 0-.625-.625Z" /></symbol><symbol fill="none" viewBox="0 0 20 20" id="time_sprite"><g stroke="#7D7D7D" stroke-width="1.25" clip-path="url(#time_sprite_a)"><rect width="15.417" height="15.417" x="2.291" y="2.292" rx="7.708" /><path stroke-linecap="round" stroke-linejoin="round" d="M9.999 5v5M14.999 10h-5" /></g><defs></defs></symbol><clipPath id="time_sprite_a"><path fill="#fff" d="M0 0h20v20H0z" /></clipPath><symbol fill="none" viewBox="0 0 24 24" id="tooltip_sprite"><g clip-path="url(#tooltip_sprite_a)"><path fill="#AAA" d="M12.27 14.041h-1.495c.004-.351.032-.654.082-.908.055-.258.147-.49.276-.697.133-.207.308-.413.527-.616.184-.164.344-.32.48-.468.137-.149.245-.301.323-.457a1.2 1.2 0 0 0 .117-.534c0-.226-.035-.414-.105-.562a.714.714 0 0 0-.305-.346.982.982 0 0 0-.504-.117 1.01 1.01 0 0 0-.469.111.87.87 0 0 0-.357.328c-.09.149-.137.344-.14.586H9c.012-.535.135-.976.37-1.324.237-.351.556-.611.954-.78A3.355 3.355 0 0 1 11.666 8c.547 0 1.016.09 1.406.27.39.175.69.435.897.779.207.34.31.754.31 1.242 0 .34-.066.643-.199.908a3.105 3.105 0 0 1-.521.733c-.215.226-.452.46-.71.703a1.62 1.62 0 0 0-.456.627c-.079.218-.12.478-.123.779Zm-1.67 1.81c0-.25.085-.457.257-.62.172-.168.403-.252.692-.252.285 0 .514.084.685.252a.813.813 0 0 1 .264.62.818.818 0 0 1-.264.616c-.171.168-.4.252-.685.252-.29 0-.52-.084-.692-.252a.827.827 0 0 1-.257-.615Z" /><circle cx="12" cy="12" r="9.25" stroke="#AAA" stroke-width="1.5" /></g><defs></defs></symbol><clipPath id="tooltip_sprite_a"><path fill="#fff" d="M0 0h24v24H0z" /></clipPath><symbol fill="none" viewBox="0 0 16 16" id="views_sprite"><g stroke="#fff" clip-path="url(#views_sprite_a)"><path d="M14.167 8c0 .388-.172.887-.53 1.443-.354.549-.864 1.113-1.474 1.623-1.232 1.03-2.788 1.767-4.163 1.767-1.375 0-2.932-.738-4.163-1.767-.61-.51-1.12-1.074-1.473-1.623-.359-.556-.53-1.055-.53-1.443 0-.388.171-.887.53-1.443.353-.549.863-1.113 1.473-1.623C5.068 3.904 6.625 3.167 8 3.167c1.375 0 2.931.738 4.163 1.767.61.51 1.12 1.074 1.473 1.623.359.556.53 1.055.53 1.443Z" /><circle cx="8" cy="8" r="1.833" /></g><defs></defs></symbol><clipPath id="views_sprite_a"><path fill="#fff" d="M0 0h16v16H0z" /></clipPath></defs></svg>