<svg width="31" height="30" viewBox="0 0 31 30" fill="none" xmlns="http://www.w3.org/2000/svg">
<rect x="0.5" width="30" height="30" rx="8" fill="#6E16E1"/>
<g clip-path="url(#clip0_69_3720)">
<path d="M23.0791 13.0845C22.9023 13.876 22.1033 14.4496 21.0578 14.6774C19.651 14.9839 18.7317 15.4419 18.214 16.1092C17.6766 16.8019 17.6767 17.5823 17.7641 18.2408C17.7977 18.4937 17.8487 18.7566 17.8959 18.9999C17.9093 19.0688 17.9223 19.1361 17.9346 19.2012C17.9929 19.5103 18.0385 19.7914 18.0504 20.0601C18.0733 20.5732 17.9747 21.0137 17.5824 21.4309C16.3257 22.7674 14.0143 22.9117 12.1748 22.0617C9.60445 20.8739 7.79166 18.1676 7.79166 15C7.79166 10.7146 11.0983 7.29163 15.1159 7.29163C17.0407 7.29163 19.3452 7.65976 21.0041 8.593C21.8258 9.05528 22.4574 9.63803 22.8276 10.3521C23.1929 11.0564 23.3335 11.945 23.0791 13.0845Z" stroke="white" stroke-width="1.25"/>
<circle cx="19.6015" cy="11.3411" r="1.04167" stroke="white" stroke-width="1.25"/>
<circle cx="11.125" cy="14.6744" r="1.04167" stroke="white" stroke-width="1.25"/>
<circle cx="13.8333" cy="19.0104" r="1.04167" stroke="white" stroke-width="1.25"/>
<circle cx="15.3633" cy="13.2552" r="1.04167" transform="rotate(-9.29721 15.3633 13.2552)" stroke="white" stroke-width="1.25"/>
</g>
<defs>
<clipPath id="clip0_69_3720">
<rect width="20" height="20" fill="white" transform="translate(5.5 5)"/>
</clipPath>
</defs>
</svg>
