<svg width="30" height="30" viewBox="0 0 30 30" fill="none" xmlns="http://www.w3.org/2000/svg">
<rect width="30" height="30" rx="8" fill="#7AAFFF"/>
<g clip-path="url(#clip0_69_3898)">
<path d="M18.1254 12.1683C18.1254 13.895 16.7257 16.7342 14.999 16.7342C13.2723 16.7342 11.8726 13.895 11.8726 12.1683C11.8726 10.4416 13.2723 9.04187 14.999 9.04187C16.7257 9.04187 18.1254 10.4416 18.1254 12.1683Z" stroke="white" stroke-width="1.25"/>
<path d="M14.9992 8.70958V7.22412" stroke="white" stroke-width="1.25" stroke-linecap="round"/>
<path d="M8.33334 14.3734V12.8879" stroke="white" stroke-width="1.25" stroke-linecap="round"/>
<path d="M21.6667 14.3734V12.8879" stroke="white" stroke-width="1.25" stroke-linecap="round"/>
<path d="M11.9752 12.8881L6.66667 12.8881" stroke="white" stroke-width="1.25" stroke-linecap="round" stroke-linejoin="round"/>
<path d="M18.0249 12.8882L23.3333 12.8882" stroke="white" stroke-width="1.25" stroke-linecap="round" stroke-linejoin="round"/>
<path d="M13.7672 11.9478L14.4346 12.1883C14.7999 12.32 15.1996 12.32 15.5649 12.1883L16.2324 11.9478" stroke="white" stroke-width="1.25" stroke-linecap="round" stroke-linejoin="round"/>
<path d="M9.16667 22.6041L10 15.7291" stroke="white" stroke-width="1.25" stroke-linecap="round"/>
<path d="M20.8333 22.6041L20 15.7291" stroke="white" stroke-width="1.25" stroke-linecap="round"/>
<path d="M15 22.6822V18.3333" stroke="white" stroke-width="1.25" stroke-linecap="round" stroke-dasharray="2.5 2.5"/>
</g>
<defs>
<clipPath id="clip0_69_3898">
<rect width="20" height="20" fill="white" transform="translate(5 5)"/>
</clipPath>
</defs>
</svg>
