<svg width="31" height="30" viewBox="0 0 31 30" fill="none" xmlns="http://www.w3.org/2000/svg">
<rect x="0.5" width="30" height="30" rx="8" fill="#6BD6A2"/>
<g clip-path="url(#clip0_69_3773)">
<rect x="7.79166" y="10.2084" width="15.4167" height="12.0833" rx="2.70833" stroke="white" stroke-width="1.25"/>
<path d="M20.1486 15.5745C20.2193 15.6452 20.279 15.7225 20.3276 15.8065C20.3961 15.9148 20.4469 16.0363 20.4756 16.1579C20.5795 16.5666 20.4712 17.0196 20.1486 17.3423C19.921 17.5699 19.6293 17.6892 19.3332 17.7024C19.2095 17.7113 19.0835 17.7002 18.9642 17.6693C18.7498 17.6185 18.5466 17.508 18.3808 17.3423C18.1422 17.1036 18.0184 16.7898 18.014 16.4761C18.0096 16.149 18.1333 15.822 18.3808 15.5745C18.6416 15.3137 18.9907 15.19 19.331 15.2121C19.6293 15.2276 19.9232 15.3491 20.1486 15.5745Z" stroke="white" stroke-width="1.25" stroke-miterlimit="10" stroke-linecap="round" stroke-linejoin="round"/>
<path d="M8.9375 10.625L17.6097 7.66376C19.64 6.97047 21.75 8.47957 21.75 10.625V10.625" stroke="white" stroke-width="1.25"/>
</g>
<defs>
<clipPath id="clip0_69_3773">
<rect width="20" height="20" fill="white" transform="translate(5.5 5)"/>
</clipPath>
</defs>
</svg>
