<svg width="31" height="30" viewBox="0 0 31 30" fill="none" xmlns="http://www.w3.org/2000/svg">
<rect x="0.5" width="30" height="30" rx="8" fill="#F3AE6D"/>
<g clip-path="url(#clip0_69_3794)">
<path d="M7.79166 15C7.79166 12.6485 7.80021 11.6294 8.07599 10.8269C8.60068 9.30013 9.80016 8.10065 11.3269 7.57596C12.1294 7.30018 13.1485 7.29163 15.5 7.29163C17.8514 7.29163 18.8706 7.30018 19.673 7.57596C21.1998 8.10065 22.3993 9.30013 22.924 10.8269C23.1998 11.6294 23.2083 12.6485 23.2083 15C23.2083 17.3514 23.1998 18.3705 22.924 19.173C22.3993 20.6998 21.1998 21.8993 19.673 22.424C18.8706 22.6997 17.8514 22.7083 15.5 22.7083H7.79166V15Z" stroke="white" stroke-width="1.25"/>
<path d="M13.5684 13.2463H17.4321" stroke="white" stroke-width="1.25" stroke-linecap="round"/>
<path d="M12.1667 16.7537H18.8333" stroke="white" stroke-width="1.25" stroke-linecap="round"/>
</g>
<defs>
<clipPath id="clip0_69_3794">
<rect width="20" height="20" fill="white" transform="translate(5.5 5)"/>
</clipPath>
</defs>
</svg>
