<svg width="20" height="20" viewBox="0 0 20 20" fill="none" xmlns="http://www.w3.org/2000/svg">
<g clip-path="url(#clip0_536_47992)">
<path d="M16.9309 3.64138C15.6562 3.05649 14.2892 2.62556 12.86 2.37872C12.8339 2.37396 12.8079 2.38587 12.7945 2.40966C12.6187 2.72235 12.424 3.13024 12.2876 3.45087C10.7504 3.22071 9.22101 3.22071 7.7153 3.45087C7.5789 3.12314 7.3771 2.72235 7.2005 2.40966C7.1871 2.38665 7.16108 2.37474 7.13507 2.37872C5.70663 2.62474 4.33968 3.05567 3.06413 3.64138C3.05308 3.64614 3.04362 3.65407 3.03733 3.66439C0.444522 7.53802 -0.265791 11.3165 0.0826466 15.048C0.0842091 15.0663 0.0944825 15.0837 0.108662 15.0949C1.81933 16.3511 3.47643 17.1138 5.10272 17.6193C5.12874 17.6273 5.15632 17.6178 5.17288 17.5963C5.55757 17.071 5.9005 16.517 6.19452 15.9345C6.21186 15.9004 6.1953 15.8599 6.15983 15.8464C5.61589 15.6401 5.09796 15.3885 4.59972 15.1028C4.5603 15.0798 4.55714 15.0234 4.59343 14.9965C4.69827 14.9179 4.80315 14.8361 4.90327 14.7536C4.9214 14.7385 4.94663 14.7354 4.96792 14.7449C8.24104 16.2393 11.7846 16.2393 15.0191 14.7449C15.0404 14.7345 15.0656 14.7377 15.0845 14.7528C15.1847 14.8353 15.2895 14.9179 15.3951 14.9964C15.4314 15.0234 15.429 15.0798 15.3896 15.1028C14.8914 15.394 14.3735 15.64 13.8287 15.8456C13.7933 15.8591 13.7775 15.9004 13.7949 15.9345C14.0952 16.5162 14.4382 17.0701 14.8157 17.5955C14.8315 17.6177 14.8599 17.6273 14.8859 17.6193C16.5201 17.1138 18.1772 16.3511 19.8878 15.0948C19.9028 15.0837 19.9123 15.067 19.9139 15.0488C20.3309 10.7347 19.2154 6.98724 16.9568 3.66517C16.9514 3.65407 16.9419 3.64614 16.9309 3.64138ZM6.68339 12.7759C5.69796 12.7759 4.88597 11.8712 4.88597 10.7601C4.88597 9.64903 5.68218 8.74431 6.68339 8.74431C7.69241 8.74431 8.49655 9.65696 8.48077 10.7601C8.48077 11.8712 7.68452 12.7759 6.68339 12.7759ZM13.329 12.7759C12.3436 12.7759 11.5316 11.8712 11.5316 10.7601C11.5316 9.64903 12.3278 8.74431 13.329 8.74431C14.338 8.74431 15.1421 9.65696 15.1264 10.7601C15.1264 11.8712 14.3381 12.7759 13.329 12.7759Z" fill="#AAAAAA"/>
</g>
<defs>
<clipPath id="clip0_536_47992">
<rect width="20" height="20" fill="white"/>
</clipPath>
</defs>
</svg>
